<svg pointer-events="none" class="leaflet-zoom-animated" width="907" height="630" viewBox="-76 -52 907 630" style="transform: translate3d(-76px, -52px, 0px);">
	<g>
		<path
			class="leaflet-interactive"
			stroke="#FFFFFF"
			stroke-opacity="1"
			stroke-width="1"
			stroke-linecap="round"
			stroke-linejoin="round"
			fill="#E5E7EB"
			fill-opacity="1"
			fill-rule="evenodd"
			d="M323 463L322 460L319 459L319 456L313 453L310 448L310 458L305 465L302 474L307 472L310 476L319 469L323 469L324 467L322 466z"
		></path>
		<path
			class="leaflet-interactive"
			stroke="#FFFFFF"
			stroke-opacity="1"
			stroke-width="1"
			stroke-linecap="round"
			stroke-linejoin="round"
			fill="#E5E7EB"
			fill-opacity="1"
			fill-rule="evenodd"
			d="M317 433L315 431L310 432L306 430L302 436L309 438L310 448L313 453L319 456L319 459L322 460L323 463L326 463L326 459L328 459L332 464L335 464L335 467L341 468L337 459L337 451L331 447L330 443L317 441L316 439L318 434z"
		></path>
		<path
			class="leaflet-interactive"
			stroke="#FFFFFF"
			stroke-opacity="1"
			stroke-width="1"
			stroke-linecap="round"
			stroke-linejoin="round"
			fill="#E5E7EB"
			fill-opacity="1"
			fill-rule="evenodd"
			d="M314 497L315 495L313 488L317 482L317 471L310 476L307 472L302 474L303 481L301 488L298 488L296 492L301 495L310 494z"
		></path>
		<path
			class="leaflet-interactive"
			stroke="#FFFFFF"
			stroke-opacity="1"
			stroke-width="1"
			stroke-linecap="round"
			stroke-linejoin="round"
			fill="#E5E7EB"
			fill-opacity="1"
			fill-rule="evenodd"
			d="M626 187L624 191L621 191L615 189L612 185L606 182L598 182L594 190L591 188L589 189L589 193L586 195L582 197L574 197L572 202L568 205L571 215L570 221L566 224L574 235L572 238L574 244L565 251L565 256L562 259L570 257L569 263L563 265L562 268L567 267L582 282L592 279L599 275L601 272L603 272L607 262L607 250L605 249L605 247L609 246L611 243L615 241L621 240L617 238L618 226L615 216L619 201L625 201L624 193z"
		></path>
		<path
			class="leaflet-interactive"
			stroke="#FFFFFF"
			stroke-opacity="1"
			stroke-width="1"
			stroke-linecap="round"
			stroke-linejoin="round"
			fill="#E5E7EB"
			fill-opacity="1"
			fill-rule="evenodd"
			d="M650 162L644 162L639 166L631 163L631 170L625 182L625 201L619 201L615 216L618 226L617 238L621 240L624 239L626 236L627 228L629 225L626 223L625 220L628 216L626 212L630 208L634 208L639 202L641 189L643 186L641 181L650 165z"
		></path>
		<path
			class="leaflet-interactive"
			stroke="#FFFFFF"
			stroke-opacity="1"
			stroke-width="1"
			stroke-linecap="round"
			stroke-linejoin="round"
			fill="#E5E7EB"
			fill-opacity="1"
			fill-rule="evenodd"
			d="M603 272L601 272L599 275L592 279L582 282L567 267L562 268L563 265L569 263L570 257L562 259L565 256L565 251L574 244L572 238L574 235L566 224L570 221L571 215L568 206L564 209L564 211L559 211L558 213L550 212L551 225L545 231L543 231L540 234L531 236L528 239L531 245L534 248L537 248L539 251L542 257L543 265L551 269L553 272L553 277L549 283L547 294L544 298L540 300L534 310L524 320L523 323L531 335L534 329L536 329L545 338L546 352L551 358L556 351L561 350L559 343L564 332L567 330L570 324L572 314L572 300L575 298L579 299L585 290L590 291L593 288L595 288L597 284L602 280L601 273z"
		></path>
		<path
			class="leaflet-interactive"
			stroke="#FFFFFF"
			stroke-opacity="1"
			stroke-width="1"
			stroke-linecap="round"
			stroke-linejoin="round"
			fill="#E5E7EB"
			fill-opacity="1"
			fill-rule="evenodd"
			d="M350 490L344 474L342 476L339 474L335 467L333 468L332 471L334 482L331 494L332 502L344 504L346 498L345 496z"
		></path>
		<path
			class="leaflet-interactive"
			stroke="#FFFFFF"
			stroke-opacity="1"
			stroke-width="1"
			stroke-linecap="round"
			stroke-linejoin="round"
			fill="#E5E7EB"
			fill-opacity="1"
			fill-rule="evenodd"
			d="M335 467L335 464L332 464L328 459L326 459L326 463L323 463L322 466L324 467L323 469L319 469L317 471L317 482L313 488L315 495L314 497L317 502L316 504L318 505L324 504L331 494L334 482L332 471L333 468z"
		></path>
		<path
			class="leaflet-interactive"
			stroke="#FFFFFF"
			stroke-opacity="1"
			stroke-width="1"
			stroke-linecap="round"
			stroke-linejoin="round"
			fill="#E5E7EB"
			fill-opacity="1"
			fill-rule="evenodd"
			d="M320 516L339 512L356 512L360 506L357 496L354 495L353 492L350 490L345 496L346 498L344 504L339 504L332 502L331 494L324 504L316 504L316 511L319 514z"
		></path>
		<path
			class="leaflet-interactive"
			stroke="#FFFFFF"
			stroke-opacity="1"
			stroke-width="1"
			stroke-linecap="round"
			stroke-linejoin="round"
			fill="#E5E7EB"
			fill-opacity="1"
			fill-rule="evenodd"
			d="M296 420L297 416L295 412L293 409L289 409L286 411L285 421L282 424L279 424L276 429L278 431L282 429L286 432L290 430L296 423z"
		></path>
		<path
			class="leaflet-interactive"
			stroke="#FFFFFF"
			stroke-opacity="1"
			stroke-width="1"
			stroke-linecap="round"
			stroke-linejoin="round"
			fill="#E5E7EB"
			fill-opacity="1"
			fill-rule="evenodd"
			d="M291 407L290 404L295 398L287 394L284 395L284 391L282 390L277 394L277 401L270 404L275 426L272 428L273 430L269 440L268 448L270 449L278 445L276 443L278 436L276 429L279 424L282 424L285 421L286 412L289 409z"
		></path>
		<path
			class="leaflet-interactive"
			stroke="#FFFFFF"
			stroke-opacity="1"
			stroke-width="1"
			stroke-linecap="round"
			stroke-linejoin="round"
			fill="#E5E7EB"
			fill-opacity="1"
			fill-rule="evenodd"
			d="M306 430L302 429L302 427L300 426L300 422L296 420L296 423L290 430L286 432L282 429L278 431L276 429L278 436L276 443L282 447L282 442L287 438L291 436L297 438L302 436L303 433L305 433z"
		></path>
		<path
			class="leaflet-interactive"
			stroke="#FFFFFF"
			stroke-opacity="1"
			stroke-width="1"
			stroke-linecap="round"
			stroke-linejoin="round"
			fill="#E5E7EB"
			fill-opacity="1"
			fill-rule="evenodd"
			d="M505 143L497 140L497 138L500 137L501 133L500 117L498 114L493 117L490 116L482 121L482 131L475 131L473 133L469 131L467 134L467 148L470 147L470 149L468 152L464 154L461 153L458 158L461 161L460 162L457 162L456 160L448 161L443 159L442 157L444 150L441 143L428 145L427 141L423 140L419 142L413 139L408 139L398 145L389 154L386 154L383 166L385 170L389 167L404 173L411 169L428 167L428 177L431 181L435 181L440 185L443 192L445 193L463 187L467 180L475 178L479 172L481 165L484 167L485 165L483 161L485 158L491 152L495 155L497 154L504 146z"
		></path>
		<path
			class="leaflet-interactive"
			stroke="#FFFFFF"
			stroke-opacity="1"
			stroke-width="1"
			stroke-linecap="round"
			stroke-linejoin="round"
			fill="#E5E7EB"
			fill-opacity="1"
			fill-rule="evenodd"
			d="M494 108L494 95L492 91L491 78L482 75L475 80L473 78L466 79L459 90L459 100L455 103L444 106L441 110L435 112L433 111L430 117L431 119L440 119L441 123L440 128L438 130L439 133L444 134L444 139L450 145L452 144L467 148L467 134L469 131L473 133L475 131L482 131L482 121L490 116L493 117L498 114L495 112z"
		></path>
		<path
			class="leaflet-interactive"
			stroke="#FFFFFF"
			stroke-opacity="1"
			stroke-width="1"
			stroke-linecap="round"
			stroke-linejoin="round"
			fill="#E5E7EB"
			fill-opacity="1"
			fill-rule="evenodd"
			d="M476 176L475 178L467 180L463 187L445 193L443 192L440 185L435 181L431 181L428 177L428 167L411 169L404 173L389 167L385 170L388 175L384 183L384 188L381 189L393 195L394 197L392 202L395 204L394 213L405 211L409 212L412 219L410 225L404 228L409 231L412 231L411 234L418 241L422 243L423 240L436 240L440 236L447 235L448 226L453 227L458 231L464 231L477 239L478 241L482 238L487 239L492 236L503 236L500 219L487 210L488 208L493 208L497 201L495 198L495 192L493 189L484 186L480 183L480 179z"
		></path>
		<path
			class="leaflet-interactive"
			stroke="#FFFFFF"
			stroke-opacity="1"
			stroke-width="1"
			stroke-linecap="round"
			stroke-linejoin="round"
			fill="#E5E7EB"
			fill-opacity="1"
			fill-rule="evenodd"
			d="M257 488L256 487L260 480L260 477L263 477L264 474L262 472L255 476L248 477L241 487L238 484L237 485L239 488L237 497L233 497L233 493L224 497L217 497L210 502L213 508L225 520L231 521L233 517L238 515L244 508L245 499L247 495L253 492z"
		></path>
		<path
			class="leaflet-interactive"
			stroke="#FFFFFF"
			stroke-opacity="1"
			stroke-width="1"
			stroke-linecap="round"
			stroke-linejoin="round"
			fill="#E5E7EB"
			fill-opacity="1"
			fill-rule="evenodd"
			d="M266 523L263 518L266 511L264 508L264 504L266 503L264 500L260 503L258 502L255 496L258 490L257 488L245 499L244 508L241 512L233 517L231 521L225 520L238 526L266 524z"
		></path>
		<path
			class="leaflet-interactive"
			stroke="#FFFFFF"
			stroke-opacity="1"
			stroke-width="1"
			stroke-linecap="round"
			stroke-linejoin="round"
			fill="#E5E7EB"
			fill-opacity="1"
			fill-rule="evenodd"
			d="M262 472L264 470L264 466L260 466L261 469L252 470L249 472L250 474L248 475L245 474L245 477L241 480L237 479L237 481L234 481L231 478L227 483L222 482L222 484L219 484L218 486L209 484L203 479L201 480L201 482L210 502L214 501L217 497L220 498L233 493L233 497L237 497L239 488L237 485L238 484L241 487L248 477L260 474z"
		></path>
		<path
			class="leaflet-interactive"
			stroke="#FFFFFF"
			stroke-opacity="1"
			stroke-width="1"
			stroke-linecap="round"
			stroke-linejoin="round"
			fill="#E5E7EB"
			fill-opacity="1"
			fill-rule="evenodd"
			d="M429 404L431 384L436 375L438 375L440 372L441 364L446 350L445 343L427 329L403 335L405 330L400 330L397 334L398 345L401 346L405 351L413 351L417 357L413 358L410 365L410 369L413 371L412 373L403 373L400 367L392 363L382 370L377 365L374 357L368 363L366 376L375 386L383 384L396 390L394 394L400 398L404 395L412 393L422 404L421 408L425 409L428 407z"
		></path>
		<path
			class="leaflet-interactive"
			stroke="#FFFFFF"
			stroke-opacity="1"
			stroke-width="1"
			stroke-linecap="round"
			stroke-linejoin="round"
			fill="#E5E7EB"
			fill-opacity="1"
			fill-rule="evenodd"
			d="M406 329L403 327L400 321L397 320L391 321L376 317L374 315L369 315L365 317L362 323L362 328L364 331L362 336L352 332L348 334L345 338L346 350L351 362L355 366L357 371L364 373L366 376L368 363L374 357L377 365L381 370L388 367L392 363L400 367L403 373L412 373L413 371L410 369L410 365L413 358L417 357L416 354L413 351L405 351L401 346L398 345L397 334L400 330L405 330z"
		></path>
		<path
			class="leaflet-interactive"
			stroke="#FFFFFF"
			stroke-opacity="1"
			stroke-width="1"
			stroke-linecap="round"
			stroke-linejoin="round"
			fill="#E5E7EB"
			fill-opacity="1"
			fill-rule="evenodd"
			d="M345 328L338 325L324 323L324 330L329 338L328 349L330 352L332 351L333 353L330 362L332 363L330 367L322 369L319 375L317 376L319 382L324 386L333 384L336 386L332 398L338 404L340 403L343 393L349 394L350 392L355 390L358 396L362 395L363 392L373 391L376 390L377 388L364 373L357 371L355 366L351 362L345 347L345 338L348 334L352 332L347 331L347 329z"
		></path>
		<path
			class="leaflet-interactive"
			stroke="#FFFFFF"
			stroke-opacity="1"
			stroke-width="1"
			stroke-linecap="round"
			stroke-linejoin="round"
			fill="#E5E7EB"
			fill-opacity="1"
			fill-rule="evenodd"
			d="M665 142L676 146L690 136L691 133L699 131L702 126L701 123L697 120L700 116L700 111L702 109L700 103L703 95L702 93L700 94L692 84L679 84L676 80L676 71L672 80L669 83L670 84L664 97L661 97L659 94L654 93L651 96L646 97L640 92L638 88L631 90L628 86L626 87L628 97L626 101L622 98L619 93L615 95L610 104L612 108L609 110L600 111L597 107L583 109L572 108L571 117L568 123L571 124L573 121L579 129L577 132L579 136L586 140L591 146L596 144L601 149L603 149L605 144L608 144L613 141L616 135L619 135L624 140L631 143L636 132L648 137L655 143L662 142z"
		></path>
		<path
			class="leaflet-interactive"
			stroke="#FFFFFF"
			stroke-opacity="1"
			stroke-width="1"
			stroke-linecap="round"
			stroke-linejoin="round"
			fill="#E5E7EB"
			fill-opacity="1"
			fill-rule="evenodd"
			d="M676 71L671 44L655 20L647 9L631 9L623 19L616 18L607 21L595 33L590 33L588 36L589 40L585 41L585 44L580 44L579 54L583 60L585 67L580 75L573 80L575 92L572 102L572 108L583 109L597 107L600 111L609 110L612 108L610 104L615 95L619 93L622 98L626 101L628 97L626 88L628 86L631 90L638 88L640 92L646 97L651 96L654 93L659 94L661 97L664 97L670 84L669 83L672 80z"
		></path>
		<path
			class="leaflet-interactive"
			stroke="#FFFFFF"
			stroke-opacity="1"
			stroke-width="1"
			stroke-linecap="round"
			stroke-linejoin="round"
			fill="#E5E7EB"
			fill-opacity="1"
			fill-rule="evenodd"
			d="M665 142L655 143L648 137L636 132L631 143L624 140L619 135L616 135L613 141L608 144L605 144L603 149L601 149L596 144L591 146L586 140L579 136L577 132L572 136L569 142L564 145L567 154L566 156L560 156L555 161L541 165L544 170L543 173L546 176L543 179L539 180L539 192L534 196L537 203L544 205L550 212L558 213L559 211L564 211L564 209L572 202L574 197L582 197L586 195L589 193L589 189L591 188L594 190L598 182L606 182L612 185L615 189L624 191L626 187L625 182L631 170L631 163L639 166L644 162L650 162L659 154L664 145z"
		></path>
		<path
			class="leaflet-interactive"
			stroke="#FFFFFF"
			stroke-opacity="1"
			stroke-width="1"
			stroke-linecap="round"
			stroke-linejoin="round"
			fill="#E5E7EB"
			fill-opacity="1"
			fill-rule="evenodd"
			d="M414 418L412 415L411 407L408 405L403 406L400 409L397 408L395 405L388 405L387 401L380 412L375 414L371 413L369 414L368 417L364 417L365 419L362 422L360 422L357 432L354 432L348 436L346 436L345 433L341 435L342 437L338 442L340 445L345 443L350 451L354 451L366 443L368 446L386 449L388 447L388 442L403 428L412 423z"
		></path>
		<path
			class="leaflet-interactive"
			stroke="#FFFFFF"
			stroke-opacity="1"
			stroke-width="1"
			stroke-linecap="round"
			stroke-linejoin="round"
			fill="#E5E7EB"
			fill-opacity="1"
			fill-rule="evenodd"
			d="M350 451L345 443L338 446L336 450L337 458L343 460L343 468L348 472L352 470L356 463L352 457zM421 408L422 404L412 393L404 395L400 398L394 394L396 390L383 384L375 386L377 388L376 390L367 392L366 391L363 392L362 395L358 396L360 401L365 405L367 409L366 412L364 412L364 417L368 417L369 414L371 413L375 414L380 412L384 407L386 401L388 405L395 405L397 408L400 409L403 406L408 405L411 407L412 415L414 418L415 414L420 414z"
		></path>
		<path
			class="leaflet-interactive"
			stroke="#FFFFFF"
			stroke-opacity="1"
			stroke-width="1"
			stroke-linecap="round"
			stroke-linejoin="round"
			fill="#E5E7EB"
			fill-opacity="1"
			fill-rule="evenodd"
			d="M386 449L368 446L366 443L354 451L350 451L356 463L352 470L348 472L343 468L343 460L337 459L341 467L335 467L336 470L342 476L344 474L348 486L354 495L359 496L364 502L368 501L368 504L371 503L371 498L376 496L375 494L381 483L385 480L390 453z"
		></path>
		<path
			class="leaflet-interactive"
			stroke="#FFFFFF"
			stroke-opacity="1"
			stroke-width="1"
			stroke-linecap="round"
			stroke-linejoin="round"
			fill="#E5E7EB"
			fill-opacity="1"
			fill-rule="evenodd"
			d="M240 441L236 445L230 446L229 439L216 430L212 431L209 436L209 441L214 449L217 451L214 454L222 459L221 463L218 465L219 469L224 468L220 473L225 471L225 478L228 476L230 478L242 475L237 463L240 455L243 455L245 453L243 451L242 445z"
		></path>
		<path
			class="leaflet-interactive"
			stroke="#FFFFFF"
			stroke-opacity="1"
			stroke-width="1"
			stroke-linecap="round"
			stroke-linejoin="round"
			fill="#E5E7EB"
			fill-opacity="1"
			fill-rule="evenodd"
			d="M270 405L262 406L256 411L249 413L245 417L241 413L238 415L240 424L248 432L245 437L240 441L243 447L243 451L245 453L254 454L255 462L258 462L258 464L253 463L251 467L252 470L261 469L260 464L263 461L262 458L265 457L267 452L269 440L272 435L272 428L275 426L272 413z"
		></path>
		<path
			class="leaflet-interactive"
			stroke="#FFFFFF"
			stroke-opacity="1"
			stroke-width="1"
			stroke-linecap="round"
			stroke-linejoin="round"
			fill="#E5E7EB"
			fill-opacity="1"
			fill-rule="evenodd"
			d="M211 433L207 431L197 432L199 434L194 438L194 430L192 429L191 424L187 425L187 423L179 438L190 456L188 458L197 465L197 470L201 480L203 479L214 486L218 486L219 484L222 484L222 482L227 483L231 478L234 481L237 481L237 479L241 480L245 477L245 474L250 474L249 472L252 470L251 467L253 463L258 464L258 462L255 462L254 454L245 453L243 455L240 455L237 463L242 475L230 478L228 476L225 478L225 471L220 473L224 468L219 469L218 465L221 463L222 459L214 454L217 451L214 449L209 441L209 436z"
		></path>
		<path
			class="leaflet-interactive"
			stroke="#FFFFFF"
			stroke-opacity="1"
			stroke-width="1"
			stroke-linecap="round"
			stroke-linejoin="round"
			fill="#E5E7EB"
			fill-opacity="1"
			fill-rule="evenodd"
			d="M344 433L340 428L338 430L337 429L335 421L332 421L330 418L327 419L328 423L326 428L324 429L324 432L326 434L325 437L317 433L318 434L316 439L317 441L329 443L331 447L336 450L340 445L338 442L342 437L341 435z"
		></path>
		<path
			class="leaflet-interactive"
			stroke="#FFFFFF"
			stroke-opacity="1"
			stroke-width="1"
			stroke-linecap="round"
			stroke-linejoin="round"
			fill="#E5E7EB"
			fill-opacity="1"
			fill-rule="evenodd"
			d="M335 402L332 398L331 401L328 398L326 399L329 412L326 418L330 418L332 421L335 421L337 429L338 430L340 428L346 436L354 432L357 432L360 422L356 420L351 423L345 421L346 414L344 415L342 413L338 413L339 410L335 409L332 405z"
		></path>
		<path
			class="leaflet-interactive"
			stroke="#FFFFFF"
			stroke-opacity="1"
			stroke-width="1"
			stroke-linecap="round"
			stroke-linejoin="round"
			fill="#E5E7EB"
			fill-opacity="1"
			fill-rule="evenodd"
			d="M358 396L355 390L350 392L349 394L343 393L340 403L338 404L335 402L332 405L335 409L339 410L338 413L342 413L344 415L346 414L345 421L351 423L356 420L362 422L365 419L363 416L364 412L366 412L367 409L365 405L360 401z"
		></path>
		<path
			class="leaflet-interactive"
			stroke="#FFFFFF"
			stroke-opacity="1"
			stroke-width="1"
			stroke-linecap="round"
			stroke-linejoin="round"
			fill="#E5E7EB"
			fill-opacity="1"
			fill-rule="evenodd"
			d="M220 390L218 393L213 392L211 394L209 384L194 384L186 395L188 402L187 407L185 411L182 412L180 417L183 419L184 422L187 423L187 425L191 424L192 429L194 430L194 438L199 434L197 432L207 431L211 433L212 431L216 430L229 439L229 445L233 446L239 443L248 432L240 424L238 415L241 413L245 417L249 413L241 409L238 403L239 396L234 391L223 388z"
		></path>
		<path
			class="leaflet-interactive"
			stroke="#FFFFFF"
			stroke-opacity="1"
			stroke-width="1"
			stroke-linecap="round"
			stroke-linejoin="round"
			fill="#E5E7EB"
			fill-opacity="1"
			fill-rule="evenodd"
			d="M267 389L262 389L262 385L260 382L255 388L249 389L247 387L234 391L239 396L238 403L241 409L245 410L248 413L256 411L262 406L270 405L267 394L268 391z"
		></path>
		<path
			class="leaflet-interactive"
			stroke="#FFFFFF"
			stroke-opacity="1"
			stroke-width="1"
			stroke-linecap="round"
			stroke-linejoin="round"
			fill="#E5E7EB"
			fill-opacity="1"
			fill-rule="evenodd"
			d="M271 366L268 362L262 364L261 360L259 358L257 359L257 355L254 356L251 354L250 351L244 354L240 354L240 351L242 350L240 346L236 347L231 350L233 354L233 359L228 364L226 373L224 374L222 380L222 388L220 390L223 388L234 391L247 387L249 389L255 388L260 382L262 385L262 389L267 389L270 382L270 376L272 371z"
		></path>
		<path
			class="leaflet-interactive"
			stroke="#FFFFFF"
			stroke-opacity="1"
			stroke-width="1"
			stroke-linecap="round"
			stroke-linejoin="round"
			fill="#E5E7EB"
			fill-opacity="1"
			fill-rule="evenodd"
			d="M201 363L208 360L212 354L212 348L214 346L213 344L217 343L221 337L219 333L215 333L208 342L203 342L202 339L199 343L201 346L198 349L188 348L188 345L185 344L181 348L175 347L177 354L180 356L182 353L193 355L197 354L199 362z"
		></path>
		<path
			class="leaflet-interactive"
			stroke="#FFFFFF"
			stroke-opacity="1"
			stroke-width="1"
			stroke-linecap="round"
			stroke-linejoin="round"
			fill="#E5E7EB"
			fill-opacity="1"
			fill-rule="evenodd"
			d="M202 339L194 336L187 336L187 331L181 325L175 332L172 344L175 347L181 348L185 344L188 345L188 348L198 349L201 346L199 343z"
		></path>
		<path
			class="leaflet-interactive"
			stroke="#FFFFFF"
			stroke-opacity="1"
			stroke-width="1"
			stroke-linecap="round"
			stroke-linejoin="round"
			fill="#E5E7EB"
			fill-opacity="1"
			fill-rule="evenodd"
			d="M215 333L213 332L212 326L215 326L216 323L211 320L207 322L207 318L199 319L198 323L190 323L187 320L184 322L183 321L181 325L187 331L187 336L194 336L202 339L203 342L208 342L213 337z"
		></path>
		<path
			class="leaflet-interactive"
			stroke="#FFFFFF"
			stroke-opacity="1"
			stroke-width="1"
			stroke-linecap="round"
			stroke-linejoin="round"
			fill="#E5E7EB"
			fill-opacity="1"
			fill-rule="evenodd"
			d="M325 386L319 382L317 376L313 372L309 372L308 376L301 380L301 383L297 384L290 390L287 390L287 387L285 388L284 395L287 394L295 398L290 404L291 407L296 402L299 396L304 396L310 399L317 398L317 394L320 388L323 388z"
		></path>
		<path
			class="leaflet-interactive"
			stroke="#FFFFFF"
			stroke-opacity="1"
			stroke-width="1"
			stroke-linecap="round"
			stroke-linejoin="round"
			fill="#E5E7EB"
			fill-opacity="1"
			fill-rule="evenodd"
			d="M332 398L336 389L336 386L333 384L320 388L317 394L317 398L313 399L311 413L318 423L322 424L324 429L326 428L328 423L326 418L329 412L326 399L328 398L331 401z"
		></path>
		<path
			class="leaflet-interactive"
			stroke="#FFFFFF"
			stroke-opacity="1"
			stroke-width="1"
			stroke-linecap="round"
			stroke-linejoin="round"
			fill="#E5E7EB"
			fill-opacity="1"
			fill-rule="evenodd"
			d="M313 399L306 398L304 396L299 396L293 406L289 409L293 409L295 412L297 416L296 420L300 422L300 426L302 427L302 429L310 432L315 431L325 437L326 434L324 432L322 424L318 423L311 413L313 406z"
		></path>
		<path
			class="leaflet-interactive"
			stroke="#FFFFFF"
			stroke-opacity="1"
			stroke-width="1"
			stroke-linecap="round"
			stroke-linejoin="round"
			fill="#E5E7EB"
			fill-opacity="1"
			fill-rule="evenodd"
			d="M327 251L324 246L320 245L315 249L310 249L299 263L290 256L277 257L276 299L307 296L315 288L320 278L320 262L324 252z"
		></path>
		<path
			class="leaflet-interactive"
			stroke="#FFFFFF"
			stroke-opacity="1"
			stroke-width="1"
			stroke-linecap="round"
			stroke-linejoin="round"
			fill="#E5E7EB"
			fill-opacity="1"
			fill-rule="evenodd"
			d="M549 211L544 205L537 203L534 196L539 192L539 180L534 182L532 185L527 186L527 192L519 195L514 195L513 196L515 198L512 199L511 197L495 192L495 198L497 201L493 208L488 208L487 210L500 219L502 225L507 221L509 217L514 214L519 214L522 212L530 215L530 211L533 213L541 209L547 210z"
		></path>
		<path
			class="leaflet-interactive"
			stroke="#FFFFFF"
			stroke-opacity="1"
			stroke-width="1"
			stroke-linecap="round"
			stroke-linejoin="round"
			fill="#E5E7EB"
			fill-opacity="1"
			fill-rule="evenodd"
			d="M529 157L524 152L521 145L517 146L508 142L505 143L497 154L495 155L491 152L483 161L485 165L484 167L481 165L479 172L476 176L480 179L480 183L484 186L493 189L495 192L515 199L513 196L514 195L519 195L527 192L527 186L532 185L534 167L533 163z"
		></path>
		<path
			class="leaflet-interactive"
			stroke="#FFFFFF"
			stroke-opacity="1"
			stroke-width="1"
			stroke-linecap="round"
			stroke-linejoin="round"
			fill="#E5E7EB"
			fill-opacity="1"
			fill-rule="evenodd"
			d="M549 211L541 209L533 213L530 211L530 215L522 212L519 214L514 214L509 217L507 221L502 225L503 236L505 239L528 239L530 236L540 234L551 225L550 212z"
		></path>
		<path
			class="leaflet-interactive"
			stroke="#FFFFFF"
			stroke-opacity="1"
			stroke-width="1"
			stroke-linecap="round"
			stroke-linejoin="round"
			fill="#E5E7EB"
			fill-opacity="1"
			fill-rule="evenodd"
			d="M309 459L304 457L305 453L294 453L293 450L290 452L285 452L285 455L281 461L287 467L286 470L288 474L290 473L297 476L302 475L305 465L307 463z"
		></path>
		<path
			class="leaflet-interactive"
			stroke="#FFFFFF"
			stroke-opacity="1"
			stroke-width="1"
			stroke-linecap="round"
			stroke-linejoin="round"
			fill="#E5E7EB"
			fill-opacity="1"
			fill-rule="evenodd"
			d="M310 448L309 438L300 436L300 438L302 439L298 441L295 451L293 450L294 453L305 453L304 457L309 459L311 454z"
		></path>
		<path
			class="leaflet-interactive"
			stroke="#FFFFFF"
			stroke-opacity="1"
			stroke-width="1"
			stroke-linecap="round"
			stroke-linejoin="round"
			fill="#E5E7EB"
			fill-opacity="1"
			fill-rule="evenodd"
			d="M300 436L297 438L291 436L284 440L282 447L278 445L270 449L268 460L273 460L276 464L275 469L278 473L284 475L288 474L286 470L287 467L281 461L285 455L285 452L290 452L293 450L295 451L298 441L302 439L300 438z"
		></path>
		<path
			class="leaflet-interactive"
			stroke="#FFFFFF"
			stroke-opacity="1"
			stroke-width="1"
			stroke-linecap="round"
			stroke-linejoin="round"
			fill="#E5E7EB"
			fill-opacity="1"
			fill-rule="evenodd"
			d="M482 75L483 72L481 59L470 56L465 57L465 50L464 48L461 47L447 52L443 57L434 59L439 69L431 75L428 81L429 85L441 88L441 94L439 95L441 104L443 104L444 106L459 101L459 90L466 79L473 78L475 80L479 77z"
		></path>
		<path
			class="leaflet-interactive"
			stroke="#FFFFFF"
			stroke-opacity="1"
			stroke-width="1"
			stroke-linecap="round"
			stroke-linejoin="round"
			fill="#E5E7EB"
			fill-opacity="1"
			fill-rule="evenodd"
			d="M399 57L395 58L394 62L388 66L379 65L375 63L374 59L372 58L352 57L350 67L357 68L359 75L361 77L363 77L367 71L381 72L379 76L380 79L386 81L381 91L387 86L391 87L390 89L394 93L393 97L395 99L400 99L401 102L404 102L405 98L408 97L408 102L410 104L413 100L415 93L424 92L426 90L429 85L428 81L431 75L439 69L439 67L434 59L408 58z"
		></path>
		<path
			class="leaflet-interactive"
			stroke="#FFFFFF"
			stroke-opacity="1"
			stroke-width="1"
			stroke-linecap="round"
			stroke-linejoin="round"
			fill="#E5E7EB"
			fill-opacity="1"
			fill-rule="evenodd"
			d="M444 106L443 104L441 104L440 101L439 95L441 94L441 88L429 85L424 92L415 93L413 100L408 106L408 111L404 114L405 118L409 118L409 122L411 123L410 125L416 128L414 131L408 133L407 140L413 139L419 142L423 140L427 141L428 145L441 143L444 150L442 157L443 159L448 161L456 160L457 162L460 162L461 161L458 158L461 153L464 154L470 149L470 147L467 148L452 144L450 145L444 139L444 134L439 133L438 130L440 128L441 123L440 119L431 119L430 117L433 111L435 112L441 110L442 108z"
		></path>
		<path
			class="leaflet-interactive"
			stroke="#FFFFFF"
			stroke-opacity="1"
			stroke-width="1"
			stroke-linecap="round"
			stroke-linejoin="round"
			fill="#E5E7EB"
			fill-opacity="1"
			fill-rule="evenodd"
			d="M322 143L315 139L314 137L311 137L309 138L307 144L302 143L299 145L301 149L296 151L287 144L289 140L283 138L275 144L271 155L265 158L250 158L246 162L246 165L240 168L239 175L241 177L239 188L242 189L243 193L260 180L262 181L263 184L269 181L272 182L273 178L279 180L279 183L283 184L285 187L284 193L291 197L286 201L281 208L282 210L294 213L306 211L310 208L321 204L318 200L321 194L331 186L344 186L344 195L350 199L357 211L363 213L366 220L369 222L370 228L376 227L376 215L371 213L368 215L369 206L366 201L361 197L364 187L361 184L362 182L352 177L334 176L333 172L330 170L332 164L329 161L322 160L321 158L317 160L315 158L322 156L323 152L319 151L319 147z"
		></path>
		<path
			class="leaflet-interactive"
			stroke="#FFFFFF"
			stroke-opacity="1"
			stroke-width="1"
			stroke-linecap="round"
			stroke-linejoin="round"
			fill="#E5E7EB"
			fill-opacity="1"
			fill-rule="evenodd"
			d="M384 183L379 183L377 179L370 178L370 175L374 175L374 156L364 146L360 147L356 144L356 142L349 138L351 131L339 134L335 138L329 138L328 141L322 143L319 147L319 151L323 152L322 156L315 158L317 160L321 158L322 160L329 161L332 164L330 170L333 172L334 176L352 177L362 182L361 184L364 187L361 197L366 201L369 206L368 215L371 213L378 215L376 207L377 202L384 198L387 193L381 189L384 188z"
		></path>
		<path
			class="leaflet-interactive"
			stroke="#FFFFFF"
			stroke-opacity="1"
			stroke-width="1"
			stroke-linecap="round"
			stroke-linejoin="round"
			fill="#E5E7EB"
			fill-opacity="1"
			fill-rule="evenodd"
			d="M374 228L370 228L369 222L366 220L363 213L357 211L350 199L344 195L344 186L336 185L333 187L331 186L321 194L318 200L321 204L302 212L304 224L299 226L300 228L303 229L306 236L304 236L299 242L301 245L304 246L302 250L315 249L320 245L324 246L327 251L328 250L333 252L336 248L339 247L342 249L342 252L348 257L347 264L349 266L357 258L363 259L368 265L369 269L375 263L376 258L378 256L376 255L380 251L380 248L377 247L373 242L372 232L374 231z"
		></path>
		<path
			class="leaflet-interactive"
			stroke="#FFFFFF"
			stroke-opacity="1"
			stroke-width="1"
			stroke-linecap="round"
			stroke-linejoin="round"
			fill="#E5E7EB"
			fill-opacity="1"
			fill-rule="evenodd"
			d="M410 104L408 102L408 97L405 98L404 102L401 102L400 99L392 102L389 106L387 115L383 118L381 117L379 122L372 116L370 117L366 122L368 126L365 127L362 125L357 116L352 115L347 117L346 122L338 124L337 123L327 127L325 130L326 135L328 138L335 138L339 134L351 131L349 138L356 142L356 144L360 147L364 146L374 156L374 175L370 175L370 178L375 178L379 183L383 184L386 181L388 175L383 166L386 154L389 154L398 145L407 140L408 133L414 131L416 128L410 125L411 123L409 122L409 118L405 118L404 114L408 111L408 106z"
		></path>
		<path
			class="leaflet-interactive"
			stroke="#FFFFFF"
			stroke-opacity="1"
			stroke-width="1"
			stroke-linecap="round"
			stroke-linejoin="round"
			fill="#E5E7EB"
			fill-opacity="1"
			fill-rule="evenodd"
			d="M381 92L382 87L379 87L378 89L374 90L373 88L363 103L365 104L364 109L357 116L362 125L365 127L368 126L366 122L370 117L372 116L379 122L381 117L383 118L387 115L389 106L386 104L388 103L384 95L381 95z"
		></path>
		<path
			class="leaflet-interactive"
			stroke="#FFFFFF"
			stroke-opacity="1"
			stroke-width="1"
			stroke-linecap="round"
			stroke-linejoin="round"
			fill="#E5E7EB"
			fill-opacity="1"
			fill-rule="evenodd"
			d="M398 99L395 99L393 97L394 93L390 89L391 87L387 86L381 92L381 95L384 95L388 103L386 104L389 106L392 102zM382 87L386 81L380 79L379 76L381 72L377 71L367 71L365 75L361 77L359 75L358 70L355 71L349 81L338 84L336 86L334 94L335 97L333 105L337 123L338 124L346 122L347 117L352 115L357 116L364 109L365 104L363 103L373 88L374 90L378 89L379 87z"
		></path>
		<path
			class="leaflet-interactive"
			stroke="#FFFFFF"
			stroke-opacity="1"
			stroke-width="1"
			stroke-linecap="round"
			stroke-linejoin="round"
			fill="#E5E7EB"
			fill-opacity="1"
			fill-rule="evenodd"
			d="M322 83L322 80L324 79L325 83L327 79L327 70L331 70L331 47L339 36L332 32L332 30L311 43L305 43L301 41L293 48L290 48L291 50L289 58L291 75L295 90L298 91L300 96L306 96L308 98L314 99L317 95L316 84L320 84z"
		></path>
		<path
			class="leaflet-interactive"
			stroke="#FFFFFF"
			stroke-opacity="1"
			stroke-width="1"
			stroke-linecap="round"
			stroke-linejoin="round"
			fill="#E5E7EB"
			fill-opacity="1"
			fill-rule="evenodd"
			d="M332 30L332 32L339 36L331 47L331 70L327 70L327 79L325 83L324 79L322 80L322 83L325 86L335 90L338 84L349 81L355 71L358 70L357 68L350 67L352 57L372 58L374 59L375 63L382 66L391 65L394 62L395 58L399 58L394 58L377 52L370 44L365 45L350 33L343 31z"
		></path>
		<path
			class="leaflet-interactive"
			stroke="#FFFFFF"
			stroke-opacity="1"
			stroke-width="1"
			stroke-linecap="round"
			stroke-linejoin="round"
			fill="#E5E7EB"
			fill-opacity="1"
			fill-rule="evenodd"
			d="M322 83L316 84L317 95L314 99L308 98L306 96L300 96L298 91L295 90L296 96L293 100L301 107L299 109L296 109L294 113L291 115L282 115L280 124L280 126L283 128L282 138L288 139L289 140L287 144L296 151L301 149L299 145L302 143L307 144L309 138L311 137L314 137L315 139L322 143L328 141L329 138L326 135L325 130L330 125L337 123L334 113L335 112L333 109L335 90L325 86L324 84z"
		></path>
		<path
			class="leaflet-interactive"
			stroke="#FFFFFF"
			stroke-opacity="1"
			stroke-width="1"
			stroke-linecap="round"
			stroke-linejoin="round"
			fill="#E5E7EB"
			fill-opacity="1"
			fill-rule="evenodd"
			d="M155 91L155 87L158 85L159 80L166 83L167 79L170 76L171 72L166 66L155 68L150 73L139 72L135 66L131 71L126 74L124 78L117 82L118 84L112 93L112 97L120 100L121 104L133 99L135 100L140 109L139 115L142 119L140 120L139 123L137 123L137 126L141 129L145 127L146 129L146 136L141 139L137 139L137 144L144 149L148 148L150 150L152 149L153 140L157 134L154 133L151 126L144 119L147 118L149 120L155 115L154 111L150 109L145 103L146 95L143 94L137 96L137 93L141 90L141 86L145 85L145 87L150 91z"
		></path>
		<path
			class="leaflet-interactive"
			stroke="#FFFFFF"
			stroke-opacity="1"
			stroke-width="1"
			stroke-linecap="round"
			stroke-linejoin="round"
			fill="#E5E7EB"
			fill-opacity="1"
			fill-rule="evenodd"
			d="M155 91L150 91L145 87L145 85L141 86L141 90L137 93L137 96L143 94L146 95L145 103L150 109L154 111L156 109L157 101L154 94zM167 56L160 49L164 40L162 39L160 43L154 40L145 39L144 36L137 33L132 34L133 40L131 47L122 61L106 75L107 90L105 98L108 104L105 108L105 112L107 116L105 119L99 122L100 135L98 143L103 147L107 153L114 153L125 158L137 157L144 164L144 157L142 155L144 149L137 144L137 140L146 136L145 127L141 129L137 126L137 123L139 123L140 120L142 119L139 115L140 109L135 100L133 99L122 104L120 100L112 97L112 93L118 84L117 82L124 78L126 74L131 71L135 66L139 72L150 73L155 68L166 66L169 60z"
		></path>
		<path
			class="leaflet-interactive"
			stroke="#FFFFFF"
			stroke-opacity="1"
			stroke-width="1"
			stroke-linecap="round"
			stroke-linejoin="round"
			fill="#E5E7EB"
			fill-opacity="1"
			fill-rule="evenodd"
			d="M225 125L221 121L216 123L205 122L204 120L198 120L196 116L191 116L187 119L169 119L166 122L157 122L153 127L151 126L154 133L157 134L153 140L152 149L144 149L142 153L144 157L144 164L149 165L155 163L157 164L160 162L166 166L164 169L163 179L153 185L151 191L152 197L156 199L154 206L163 208L163 198L172 198L172 189L170 186L169 179L170 175L176 176L185 172L185 170L182 169L181 165L184 164L182 156L169 153L166 151L163 148L166 145L166 143L174 138L178 139L180 145L184 145L185 140L190 140L191 144L188 147L193 145L193 142L195 140L198 140L199 146L202 150L200 156L203 157L204 161L214 161L220 159L221 157L229 155L232 151L234 151L237 146L241 145L241 138L237 136L234 132L224 131z"
		></path>
		<path
			class="leaflet-interactive"
			stroke="#FFFFFF"
			stroke-opacity="1"
			stroke-width="1"
			stroke-linecap="round"
			stroke-linejoin="round"
			fill="#E5E7EB"
			fill-opacity="1"
			fill-rule="evenodd"
			d="M275 338L263 330L255 334L251 333L248 335L248 340L241 340L239 346L242 350L240 351L240 354L244 354L250 351L251 354L254 356L257 355L257 359L259 358L262 364L268 362L271 366L272 346L274 342z"
		></path>
		<path
			class="leaflet-interactive"
			stroke="#FFFFFF"
			stroke-opacity="1"
			stroke-width="1"
			stroke-linecap="round"
			stroke-linejoin="round"
			fill="#E5E7EB"
			fill-opacity="1"
			fill-rule="evenodd"
			d="M324 323L309 321L275 334L272 346L272 371L270 376L270 382L267 388L267 394L270 404L277 401L277 394L282 390L284 391L285 388L287 387L287 390L290 390L297 384L301 383L301 380L308 376L309 372L313 372L317 376L319 375L322 369L330 367L332 363L330 362L331 356L333 353L332 351L330 352L328 349L329 338L324 330L324 327z"
		></path>
		<path
			class="leaflet-interactive"
			stroke="#FFFFFF"
			stroke-opacity="1"
			stroke-width="1"
			stroke-linecap="round"
			stroke-linejoin="round"
			fill="#E5E7EB"
			fill-opacity="1"
			fill-rule="evenodd"
			d="M279 299L279 302L272 313L258 299L255 289L248 283L245 284L243 287L240 293L240 300L238 302L214 298L208 294L197 305L199 309L202 308L202 311L205 313L208 312L209 315L207 318L207 322L211 320L216 323L215 326L212 326L213 332L219 333L221 337L224 338L229 337L230 343L234 347L234 349L239 346L241 340L248 340L248 335L251 333L255 334L263 330L275 338L275 334L286 330L285 328L287 324L286 322L288 314L284 307L287 298z"
		></path>
		<path
			class="leaflet-interactive"
			stroke="#FFFFFF"
			stroke-opacity="1"
			stroke-width="1"
			stroke-linecap="round"
			stroke-linejoin="round"
			fill="#E5E7EB"
			fill-opacity="1"
			fill-rule="evenodd"
			d="M166 317L164 312L159 316L161 318zM173 283L170 286L164 286L164 290L158 295L157 293L151 292L136 279L135 282L146 308L151 312L152 317L157 315L157 310L161 304L158 301L166 302L167 298L163 297L163 295L179 288L174 284z"
		></path>
		<path
			class="leaflet-interactive"
			stroke="#FFFFFF"
			stroke-opacity="1"
			stroke-width="1"
			stroke-linecap="round"
			stroke-linejoin="round"
			fill="#E5E7EB"
			fill-opacity="1"
			fill-rule="evenodd"
			d="M158 249L144 237L134 222L127 222L126 219L122 218L123 214L115 210L113 211L110 209L110 206L108 204L107 208L104 210L104 217L100 222L97 221L89 225L89 233L86 233L82 241L78 244L80 253L76 263L71 265L59 265L60 271L57 281L58 293L61 290L67 290L72 285L77 283L80 279L84 281L107 270L112 266L113 261L116 259L121 259L126 267L137 271L143 269L143 272L139 274L136 279L151 292L157 293L158 295L164 290L164 286L170 286L173 283L170 277L169 270L175 268L174 274L182 279L185 284L194 288L197 285L202 285L202 294L204 297L207 294L214 298L222 300L236 302L240 300L240 293L245 284L242 284L241 282L223 283L219 279L214 278L209 273L191 267L182 259L179 258L170 262L166 259L166 255L160 252z"
		></path>
		<path
			class="leaflet-interactive"
			stroke="#FFFFFF"
			stroke-opacity="1"
			stroke-width="1"
			stroke-linecap="round"
			stroke-linejoin="round"
			fill="#E5E7EB"
			fill-opacity="1"
			fill-rule="evenodd"
			d="M204 297L202 294L202 285L197 285L194 288L185 284L182 279L174 274L175 268L173 268L169 270L170 277L173 283L179 288L163 295L163 297L167 298L166 302L158 300L161 304L157 310L157 315L152 317L156 321L159 319L161 321L170 321L175 319L178 321L178 323L182 320L184 322L186 320L190 323L198 323L199 319L207 318L209 315L208 312L205 313L202 311L202 308L199 309L197 305L201 300zM166 317L161 318L159 316L164 312z"
		></path>
		<path
			class="leaflet-interactive"
			stroke="#FFFFFF"
			stroke-opacity="1"
			stroke-width="1"
			stroke-linecap="round"
			stroke-linejoin="round"
			fill="#E5E7EB"
			fill-opacity="1"
			fill-rule="evenodd"
			d="M91 398L90 396L87 395L84 397L82 404L67 405L62 409L55 408L55 412L93 411L93 409L90 409L89 406L92 400z"
		></path>
		<path
			class="leaflet-interactive"
			stroke="#FFFFFF"
			stroke-opacity="1"
			stroke-width="1"
			stroke-linecap="round"
			stroke-linejoin="round"
			fill="#E5E7EB"
			fill-opacity="1"
			fill-rule="evenodd"
			d="M105 410L108 407L105 406L105 404L103 404L102 407L98 408L93 407L93 404L91 404L89 406L90 409L93 409L93 411L94 410z"
		></path>
		<path
			class="leaflet-interactive"
			stroke="#FFFFFF"
			stroke-opacity="1"
			stroke-width="1"
			stroke-linecap="round"
			stroke-linejoin="round"
			fill="#E5E7EB"
			fill-opacity="1"
			fill-rule="evenodd"
			d="M144 412L144 409L134 407L134 405L137 404L137 401L134 400L131 403L129 402L128 399L130 398L130 396L96 395L96 398L91 398L91 404L93 404L94 402L100 404L102 404L103 402L106 403L105 406L108 407L105 410L123 409L136 412z"
		></path>
		<path
			class="leaflet-interactive"
			stroke="#FFFFFF"
			stroke-opacity="1"
			stroke-width="1"
			stroke-linecap="round"
			stroke-linejoin="round"
			fill="#E5E7EB"
			fill-opacity="1"
			fill-rule="evenodd"
			d="M399 268L392 268L388 275L382 278L378 278L381 282L377 287L368 288L366 290L360 290L355 293L356 286L354 286L352 290L353 293L357 294L355 300L352 303L345 306L351 308L351 315L345 319L345 328L347 329L347 331L362 336L364 331L362 328L363 319L369 315L374 315L376 317L391 321L400 321L403 327L406 329L419 320L417 318L418 314L414 311L416 305L429 308L430 302L417 297L406 298L403 300L402 298L397 296L390 283L393 280L393 278L397 276L400 272z"
		></path>
		<path
			class="leaflet-interactive"
			stroke="#FFFFFF"
			stroke-opacity="1"
			stroke-width="1"
			stroke-linecap="round"
			stroke-linejoin="round"
			fill="#E5E7EB"
			fill-opacity="1"
			fill-rule="evenodd"
			d="M392 268L385 267L383 260L378 258L378 256L373 266L369 269L368 265L363 259L357 258L351 265L353 267L356 279L355 293L360 290L366 290L368 288L379 286L381 282L378 278L385 277L390 273z"
		></path>
		<path
			class="leaflet-interactive"
			stroke="#FFFFFF"
			stroke-opacity="1"
			stroke-width="1"
			stroke-linecap="round"
			stroke-linejoin="round"
			fill="#E5E7EB"
			fill-opacity="1"
			fill-rule="evenodd"
			d="M351 265L349 266L347 264L348 257L342 252L342 249L339 247L336 248L333 252L328 250L324 252L320 262L320 277L315 288L307 296L287 298L284 307L288 314L286 322L287 324L285 328L286 330L288 328L309 321L333 324L345 328L345 319L351 315L351 308L345 306L352 303L355 300L357 294L353 293L352 290L354 286L356 286L356 279L353 267z"
		></path>
		<path
			class="leaflet-interactive"
			stroke="#FFFFFF"
			stroke-opacity="1"
			stroke-width="1"
			stroke-linecap="round"
			stroke-linejoin="round"
			fill="#E5E7EB"
			fill-opacity="1"
			fill-rule="evenodd"
			d="M302 212L294 213L282 210L281 208L284 203L291 197L289 195L284 194L285 187L283 184L279 183L279 180L273 178L272 182L269 181L263 184L262 181L260 180L243 193L242 189L237 189L235 210L233 212L234 214L232 219L229 220L229 224L242 224L245 219L247 221L246 230L244 232L246 240L245 242L248 244L248 247L254 247L257 245L260 246L260 253L263 257L271 257L273 254L273 250L279 248L280 249L278 253L276 250L274 251L275 262L277 263L277 257L290 256L299 263L309 250L302 250L304 246L301 245L299 242L304 236L306 236L303 229L300 228L299 226L304 224L303 213z"
		></path>
		<path
			class="leaflet-interactive"
			stroke="#FFFFFF"
			stroke-opacity="1"
			stroke-width="1"
			stroke-linecap="round"
			stroke-linejoin="round"
			fill="#E5E7EB"
			fill-opacity="1"
			fill-rule="evenodd"
			d="M234 151L232 151L229 155L221 157L220 159L214 161L204 161L203 157L200 156L202 151L199 146L198 140L195 140L193 142L193 145L188 148L191 144L190 140L185 140L184 145L180 145L178 139L174 138L166 143L166 145L163 148L166 151L169 153L182 156L184 164L181 165L182 169L185 170L185 172L176 176L170 175L169 179L170 186L172 189L172 198L163 198L163 208L154 206L156 199L152 197L151 191L153 185L163 179L164 169L166 166L160 162L157 164L144 164L137 157L125 158L110 152L110 157L112 159L113 164L112 168L117 176L117 181L114 192L109 189L106 190L103 199L110 206L110 209L113 211L118 211L123 214L122 218L126 219L127 222L134 222L144 237L158 249L161 236L170 239L171 247L176 250L192 243L195 240L197 232L209 229L218 235L220 240L223 242L228 242L232 238L241 237L243 240L246 240L244 232L246 230L247 221L245 219L242 224L229 224L229 220L232 219L234 214L233 212L235 210L235 201L237 198L236 192L237 189L239 188L241 177L239 175L239 172L242 166L240 159L235 155z"
		></path>
		<path
			class="leaflet-interactive"
			stroke="#FFFFFF"
			stroke-opacity="1"
			stroke-width="1"
			stroke-linecap="round"
			stroke-linejoin="round"
			fill="#E5E7EB"
			fill-opacity="1"
			fill-rule="evenodd"
			d="M246 240L243 240L241 237L232 238L228 242L223 242L220 240L218 235L209 229L197 232L195 240L192 243L176 250L171 248L170 239L161 236L158 249L160 252L166 255L166 259L168 261L170 262L179 258L182 259L191 267L209 273L214 278L219 279L223 283L241 282L242 284L250 284L255 289L258 299L272 313L279 302L279 299L276 299L277 263L275 262L274 251L276 250L278 253L280 249L279 248L273 250L273 254L271 257L263 257L260 253L260 246L257 245L254 247L248 247L248 244L245 242z"
		></path>
		<path
			class="leaflet-interactive"
			stroke="#FFFFFF"
			stroke-opacity="1"
			stroke-width="1"
			stroke-linecap="round"
			stroke-linejoin="round"
			fill="#E5E7EB"
			fill-opacity="1"
			fill-rule="evenodd"
			d="M113 362L110 362L110 354L101 354L98 357L95 351L88 361L85 358L80 358L77 355L72 357L72 361L75 361L75 365L78 372L78 377L75 380L76 384L74 386L76 392L84 391L91 398L96 398L95 396L98 386L101 385L106 380L107 376L114 371L113 366z"
		></path>
		<path
			class="leaflet-interactive"
			stroke="#FFFFFF"
			stroke-opacity="1"
			stroke-width="1"
			stroke-linecap="round"
			stroke-linejoin="round"
			fill="#E5E7EB"
			fill-opacity="1"
			fill-rule="evenodd"
			d="M145 375L140 373L137 376L135 369L124 372L122 374L111 374L107 376L106 380L101 385L98 386L95 396L130 396L130 398L128 399L129 402L131 403L134 400L137 401L137 404L134 405L134 407L144 409L144 412L150 414L152 413L155 416L157 416L158 413L154 410L156 409L156 405L158 406L156 398L152 405L150 400L146 398L148 391L155 387L156 378L158 376L153 377L152 379L146 378z"
		></path>
		<path
			class="leaflet-interactive"
			stroke="#FFFFFF"
			stroke-opacity="1"
			stroke-width="1"
			stroke-linecap="round"
			stroke-linejoin="round"
			fill="#E5E7EB"
			fill-opacity="1"
			fill-rule="evenodd"
			d="M73 335L70 331L68 336L65 334L65 329L61 326L55 331L57 336L57 347L60 351L60 355L57 355L59 366L59 369L57 371L59 376L56 378L57 391L60 392L55 408L62 409L67 405L82 404L84 397L87 395L86 392L84 391L76 392L74 386L76 384L75 380L78 377L78 372L75 365L75 361L72 361L72 357L77 355L75 350L70 345L73 337z"
		></path>
		<path
			class="leaflet-interactive"
			stroke="#FFFFFF"
			stroke-opacity="1"
			stroke-width="1"
			stroke-linecap="round"
			stroke-linejoin="round"
			fill="#E5E7EB"
			fill-opacity="1"
			fill-rule="evenodd"
			d="M201 363L199 362L197 354L193 355L182 353L179 358L179 364L177 368L167 366L167 371L159 374L156 378L155 387L171 381L176 381L179 384L180 390L186 395L194 384L209 384L206 379L206 372L203 372L202 365z"
		></path>
		<path
			class="leaflet-interactive"
			stroke="#FFFFFF"
			stroke-opacity="1"
			stroke-width="1"
			stroke-linecap="round"
			stroke-linejoin="round"
			fill="#E5E7EB"
			fill-opacity="1"
			fill-rule="evenodd"
			d="M234 349L234 347L230 343L229 337L221 337L217 343L213 344L213 352L208 360L201 363L203 372L206 372L205 375L210 385L209 388L211 394L213 392L218 393L222 388L221 387L224 374L226 373L228 364L233 359L233 354L231 350z"
		></path>
		<path
			class="leaflet-interactive"
			stroke="#FFFFFF"
			stroke-opacity="1"
			stroke-width="1"
			stroke-linecap="round"
			stroke-linejoin="round"
			fill="#E5E7EB"
			fill-opacity="1"
			fill-rule="evenodd"
			d="M186 395L180 390L179 384L176 381L171 381L148 391L146 398L150 400L152 405L156 398L158 406L156 405L156 409L154 410L158 413L157 416L155 416L152 413L150 414L161 421L179 438L187 423L184 422L183 419L180 417L182 412L185 411L187 407L188 402L186 398zM179 358L169 358L166 361L166 366L159 374L167 371L167 366L177 368L179 364z"
		></path>
		<path
			class="leaflet-interactive"
			stroke="#FFFFFF"
			stroke-opacity="1"
			stroke-width="1"
			stroke-linecap="round"
			stroke-linejoin="round"
			fill="#E5E7EB"
			fill-opacity="1"
			fill-rule="evenodd"
			d="M183 321L182 320L178 323L178 321L175 319L170 321L161 321L159 319L156 321L156 325L149 327L148 330L150 334L155 331L156 332L154 334L156 340L158 336L164 332L164 330L171 330L175 332L181 325z"
		></path>
		<path
			class="leaflet-interactive"
			stroke="#FFFFFF"
			stroke-opacity="1"
			stroke-width="1"
			stroke-linecap="round"
			stroke-linejoin="round"
			fill="#E5E7EB"
			fill-opacity="1"
			fill-rule="evenodd"
			d="M175 332L171 330L164 330L164 332L158 336L156 343L154 345L150 344L146 355L146 378L152 379L153 377L158 376L166 366L166 361L169 358L179 358L180 356L177 354L175 347L172 344L175 335z"
		></path>
		<path
			class="leaflet-interactive"
			stroke="#FFFFFF"
			stroke-opacity="1"
			stroke-width="1"
			stroke-linecap="round"
			stroke-linejoin="round"
			fill="#E5E7EB"
			fill-opacity="1"
			fill-rule="evenodd"
			d="M148 330L145 330L140 325L136 328L137 331L130 332L129 334L130 339L128 343L134 351L132 364L129 370L130 371L135 369L136 376L140 373L145 375L147 369L147 350L150 344L154 345L156 343L154 336L156 332L155 331L150 334z"
		></path>
		<path
			class="leaflet-interactive"
			stroke="#FFFFFF"
			stroke-opacity="1"
			stroke-width="1"
			stroke-linecap="round"
			stroke-linejoin="round"
			fill="#E5E7EB"
			fill-opacity="1"
			fill-rule="evenodd"
			d="M146 306L139 311L142 315L141 319L138 317L133 321L130 327L128 324L127 317L124 314L124 311L128 303L123 295L123 291L116 291L115 299L113 300L114 308L111 317L111 331L107 338L111 339L111 346L115 348L118 353L121 354L122 356L121 359L114 360L114 371L111 374L122 374L124 372L130 371L129 370L132 364L134 351L128 343L130 339L130 332L137 331L136 328L140 325L145 330L148 330L149 327L156 325L156 321L153 319L151 312L146 308z"
		></path>
		<path
			class="leaflet-interactive"
			stroke="#FFFFFF"
			stroke-opacity="1"
			stroke-width="1"
			stroke-linecap="round"
			stroke-linejoin="round"
			fill="#E5E7EB"
			fill-opacity="1"
			fill-rule="evenodd"
			d="M136 279L139 274L143 272L143 269L137 271L126 267L121 259L116 259L112 262L112 266L107 270L84 281L80 279L77 283L72 285L67 290L61 290L58 293L58 297L55 301L55 306L58 312L55 328L53 330L55 331L61 326L65 328L65 334L68 336L70 331L73 335L75 333L83 335L85 334L88 341L100 340L102 336L107 338L111 331L111 317L114 308L113 300L115 299L116 291L121 290L123 291L123 295L128 303L124 311L124 314L127 317L128 324L130 327L133 321L138 317L141 319L142 315L139 311L146 306L135 282z"
		></path>
		<path
			class="leaflet-interactive"
			stroke="#FFFFFF"
			stroke-opacity="1"
			stroke-width="1"
			stroke-linecap="round"
			stroke-linejoin="round"
			fill="#E5E7EB"
			fill-opacity="1"
			fill-rule="evenodd"
			d="M107 338L102 336L100 340L88 341L85 334L83 335L75 333L73 335L70 345L80 358L85 358L88 361L95 351L98 357L101 354L110 354L110 362L113 362L114 360L121 359L122 356L121 354L118 353L115 348L111 346L111 339z"
		></path>
		<path
			class="leaflet-interactive"
			stroke="#FFFFFF"
			stroke-opacity="1"
			stroke-width="1"
			stroke-linecap="round"
			stroke-linejoin="round"
			fill="#E5E7EB"
			fill-opacity="1"
			fill-rule="evenodd"
			d="M478 241L477 239L464 231L458 231L457 229L448 226L448 235L440 236L436 240L423 240L422 243L411 234L412 231L409 231L404 228L401 231L404 235L397 241L397 244L380 251L376 255L378 256L378 258L383 260L385 267L399 268L402 265L404 270L413 262L416 262L417 264L427 263L428 265L430 262L433 261L437 253L442 253L444 257L452 255L450 253L453 252L457 245L459 244L466 245L472 248L481 247L481 243z"
		></path>
		<path
			class="leaflet-interactive"
			stroke="#FFFFFF"
			stroke-opacity="1"
			stroke-width="1"
			stroke-linecap="round"
			stroke-linejoin="round"
			fill="#E5E7EB"
			fill-opacity="1"
			fill-rule="evenodd"
			d="M387 193L384 198L377 202L376 207L378 215L375 216L376 227L372 232L373 242L377 247L380 248L380 251L397 244L397 241L404 235L401 231L405 227L410 225L412 219L409 212L405 211L395 213L395 204L392 202L394 197L393 195L389 194z"
		></path>
		<path
			class="leaflet-interactive"
			stroke="#FFFFFF"
			stroke-opacity="1"
			stroke-width="1"
			stroke-linecap="round"
			stroke-linejoin="round"
			fill="#E5E7EB"
			fill-opacity="1"
			fill-rule="evenodd"
			d="M481 247L472 248L466 245L459 244L457 245L453 252L450 253L452 255L444 257L442 253L437 253L433 261L430 262L428 265L427 263L417 264L416 262L413 262L404 270L402 265L399 268L400 272L397 276L393 278L393 280L390 283L397 296L402 298L402 300L406 298L417 297L437 304L473 272L483 270L485 262L481 250z"
		></path>
		<path
			class="leaflet-interactive"
			stroke="#FFFFFF"
			stroke-opacity="1"
			stroke-width="1"
			stroke-linecap="round"
			stroke-linejoin="round"
			fill="#E5E7EB"
			fill-opacity="1"
			fill-rule="evenodd"
			d="M277 472L274 472L272 475L273 477L270 488L271 494L275 498L285 498L288 503L288 506L290 506L294 511L300 511L301 510L299 507L301 506L301 504L298 501L294 501L292 498L298 488L301 488L303 481L302 475L297 476L290 473L284 475L278 473z"
		></path>
		<path
			class="leaflet-interactive"
			stroke="#FFFFFF"
			stroke-opacity="1"
			stroke-width="1"
			stroke-linecap="round"
			stroke-linejoin="round"
			fill="#E5E7EB"
			fill-opacity="1"
			fill-rule="evenodd"
			d="M296 492L292 498L294 501L298 501L301 504L302 508L306 512L305 517L319 517L320 516L316 511L316 499L310 494L301 495L296 493z"
		></path>
		<path
			class="leaflet-interactive"
			stroke="#FFFFFF"
			stroke-opacity="1"
			stroke-width="1"
			stroke-linecap="round"
			stroke-linejoin="round"
			fill="#E5E7EB"
			fill-opacity="1"
			fill-rule="evenodd"
			d="M270 449L268 448L265 457L262 458L263 461L260 464L260 466L264 466L264 470L262 472L264 474L263 477L260 477L260 480L256 487L258 490L255 494L258 502L260 503L264 500L266 503L264 504L264 508L266 511L263 518L264 521L268 524L274 522L281 522L280 520L288 521L290 518L294 516L297 517L295 521L306 519L306 512L301 506L299 507L301 510L300 511L294 511L290 506L288 506L288 503L285 498L275 498L271 494L270 488L273 477L272 475L274 472L277 472L275 469L276 464L273 460L268 460z"
		></path>
		<path
			class="leaflet-interactive"
			stroke="#FFFFFF"
			stroke-opacity="1"
			stroke-width="1"
			stroke-linecap="round"
			stroke-linejoin="round"
			fill="#E5E7EB"
			fill-opacity="1"
			fill-rule="evenodd"
			d="M277 39L271 29L258 15L250 11L242 13L236 9L233 9L209 -1L199 1L193 7L188 7L190 20L186 30L188 32L192 29L197 33L196 35L198 42L200 44L205 43L207 48L206 50L211 59L217 63L218 59L224 57L235 63L235 47L242 44L247 47L248 41L251 39L267 45L274 42z"
		></path>
		<path
			class="leaflet-interactive"
			stroke="#FFFFFF"
			stroke-opacity="1"
			stroke-width="1"
			stroke-linecap="round"
			stroke-linejoin="round"
			fill="#E5E7EB"
			fill-opacity="1"
			fill-rule="evenodd"
			d="M188 7L169 5L151 9L137 22L132 22L132 34L137 33L144 36L145 39L154 40L160 43L162 39L164 40L160 49L167 56L175 55L178 51L182 52L186 49L190 51L195 47L199 50L206 50L207 48L205 43L200 44L198 42L196 35L197 33L192 29L188 32L186 30L190 20L188 11z"
		></path>
		<path
			class="leaflet-interactive"
			stroke="#FFFFFF"
			stroke-opacity="1"
			stroke-width="1"
			stroke-linecap="round"
			stroke-linejoin="round"
			fill="#E5E7EB"
			fill-opacity="1"
			fill-rule="evenodd"
			d="M206 50L199 50L195 47L190 51L186 49L182 52L178 51L175 55L167 56L169 62L166 65L169 71L171 72L170 76L167 79L166 83L159 80L158 85L155 87L154 94L157 101L156 109L154 111L155 115L149 120L147 118L144 119L151 126L153 127L157 122L163 123L169 119L177 119L175 115L177 90L179 87L192 87L203 90L216 88L219 89L221 85L221 80L217 64L211 59L207 51z"
		></path>
		<path
			class="leaflet-interactive"
			stroke="#FFFFFF"
			stroke-opacity="1"
			stroke-width="1"
			stroke-linecap="round"
			stroke-linejoin="round"
			fill="#E5E7EB"
			fill-opacity="1"
			fill-rule="evenodd"
			d="M547 290L537 287L517 292L512 291L498 279L496 282L492 284L482 283L477 284L473 287L467 287L456 297L449 307L452 311L458 311L461 309L466 311L468 315L468 324L471 337L470 340L467 342L470 347L474 351L488 344L491 345L473 361L472 364L468 365L465 363L463 365L463 371L459 376L462 384L477 384L480 381L481 370L483 370L484 375L486 375L489 379L496 382L494 386L500 391L500 394L508 394L510 396L510 403L520 403L522 405L527 404L527 401L534 397L536 387L535 386L536 383L538 383L538 380L543 375L550 374L548 365L549 360L551 358L546 352L545 338L536 329L534 329L531 335L523 323L524 320L534 310L540 300L544 298L547 294z"
		></path>
		<path
			class="leaflet-interactive"
			stroke="#FFFFFF"
			stroke-opacity="1"
			stroke-width="1"
			stroke-linecap="round"
			stroke-linejoin="round"
			fill="#E5E7EB"
			fill-opacity="1"
			fill-rule="evenodd"
			d="M503 236L492 236L487 239L482 238L478 241L481 243L482 255L485 262L484 268L483 270L473 272L463 280L473 287L477 284L482 283L492 284L496 282L498 279L512 291L517 292L537 287L547 290L549 283L553 277L553 272L551 269L543 265L542 257L537 248L534 248L528 239L505 239z"
		></path>
		<path
			class="leaflet-interactive"
			stroke="#FFFFFF"
			stroke-opacity="1"
			stroke-width="1"
			stroke-linecap="round"
			stroke-linejoin="round"
			fill="#E5E7EB"
			fill-opacity="1"
			fill-rule="evenodd"
			d="M473 287L463 280L453 291L437 304L430 302L429 308L417 305L414 311L418 314L417 318L419 320L406 329L403 333L403 335L427 329L445 343L446 350L441 364L440 372L438 375L436 375L431 384L429 404L434 405L439 389L444 391L461 374L463 371L463 365L465 363L468 365L472 364L473 361L491 345L488 344L474 351L467 342L470 340L471 337L468 324L468 315L466 311L461 309L458 311L452 311L449 307L456 297L467 287z"
		></path>
		<path
			class="leaflet-interactive"
			stroke="#FFFFFF"
			stroke-opacity="1"
			stroke-width="1"
			stroke-linecap="round"
			stroke-linejoin="round"
			fill="#E5E7EB"
			fill-opacity="1"
			fill-rule="evenodd"
			d="M577 132L579 129L573 121L571 124L568 123L554 125L543 133L540 138L532 139L533 150L529 157L534 167L532 176L533 183L543 179L546 176L543 173L544 170L541 165L555 161L560 156L566 156L567 154L564 145L569 142L572 136L576 134zM580 44L569 41L567 43L561 42L552 34L537 31L530 28L519 27L522 40L527 45L527 48L520 51L512 51L508 54L508 57L506 59L507 63L513 69L514 76L517 81L520 82L523 89L531 91L530 98L532 101L542 106L548 105L550 107L559 103L561 98L564 96L570 98L572 102L575 92L573 80L580 75L585 67L583 60L579 54L580 49z"
		></path>
		<path
			class="leaflet-interactive"
			stroke="#FFFFFF"
			stroke-opacity="1"
			stroke-width="1"
			stroke-linecap="round"
			stroke-linejoin="round"
			fill="#E5E7EB"
			fill-opacity="1"
			fill-rule="evenodd"
			d="M519 27L489 28L475 33L461 33L450 39L432 59L443 57L447 52L461 47L464 48L465 50L465 57L470 56L481 59L483 72L482 75L491 78L492 91L494 95L494 108L501 99L511 93L518 83L514 76L513 69L507 63L506 59L508 57L508 54L512 51L520 51L527 48L527 45L522 40L520 32z"
		></path>
		<path
			class="leaflet-interactive"
			stroke="#FFFFFF"
			stroke-opacity="1"
			stroke-width="1"
			stroke-linecap="round"
			stroke-linejoin="round"
			fill="#E5E7EB"
			fill-opacity="1"
			fill-rule="evenodd"
			d="M572 102L570 98L564 96L561 98L559 103L550 107L548 105L542 106L534 103L530 98L531 91L523 89L520 82L517 81L518 83L511 93L501 99L494 108L495 112L500 117L501 133L500 137L497 138L497 140L503 143L508 142L517 146L521 145L524 152L529 157L533 150L532 139L540 138L543 133L554 125L568 124L571 117L572 108z"
		></path>
		<path
			class="leaflet-interactive"
			stroke="#FFFFFF"
			stroke-opacity="1"
			stroke-width="1"
			stroke-linecap="round"
			stroke-linejoin="round"
			fill="#E5E7EB"
			fill-opacity="1"
			fill-rule="evenodd"
			d="M294 87L290 88L287 85L280 89L273 86L269 86L264 79L259 78L257 84L250 80L245 86L241 96L241 102L246 114L249 116L247 119L247 123L240 125L238 123L232 124L227 122L224 131L234 132L237 136L241 138L241 145L237 146L234 151L235 155L240 159L242 166L245 166L246 162L250 158L265 158L271 155L275 144L282 138L283 128L280 126L282 115L291 115L294 113L296 109L299 109L301 107L293 100L296 96L295 90z"
		></path>
		<path
			class="leaflet-interactive"
			stroke="#FFFFFF"
			stroke-opacity="1"
			stroke-width="1"
			stroke-linecap="round"
			stroke-linejoin="round"
			fill="#E5E7EB"
			fill-opacity="1"
			fill-rule="evenodd"
			d="M250 80L247 81L244 79L242 76L242 71L239 67L227 81L230 94L232 96L241 96L245 86zM290 48L284 49L277 39L271 44L267 45L251 39L248 40L247 47L245 45L245 48L257 48L255 51L255 56L259 58L255 62L261 62L264 64L261 68L258 68L257 71L259 78L264 79L269 86L273 86L280 89L287 85L290 88L294 87L289 58L291 50z"
		></path>
		<path
			class="leaflet-interactive"
			stroke="#FFFFFF"
			stroke-opacity="1"
			stroke-width="1"
			stroke-linecap="round"
			stroke-linejoin="round"
			fill="#E5E7EB"
			fill-opacity="1"
			fill-rule="evenodd"
			d="M259 78L257 71L258 68L261 68L264 64L261 62L255 62L259 58L255 56L255 51L257 48L245 48L245 45L239 45L235 47L235 63L225 57L218 59L217 63L221 80L221 85L219 89L216 88L203 90L192 87L179 87L177 90L175 115L177 119L187 119L191 116L195 116L198 120L204 120L205 122L216 123L221 121L225 124L227 124L227 122L232 124L238 123L240 125L247 123L247 119L249 116L246 114L242 106L241 96L232 96L230 94L227 82L239 67L242 71L242 76L244 79L247 81L250 80L256 84L259 81z"
		></path>
		<path
			class="leaflet-interactive"
			stroke="gray"
			stroke-opacity="1"
			stroke-width="1"
			stroke-linecap="round"
			stroke-linejoin="round"
			fill="none"
			d="M301 495L296 493L298 488L301 488L303 481L302 475L305 465L310 458L311 454L309 438L302 437L303 433L305 433L306 430L310 432L315 431L318 434L316 439L317 441L329 443L331 447L337 451L337 458L341 467L335 467L335 464L332 464L328 459L326 459L326 463L323 463L322 466L324 467L323 469L319 469L317 471L317 482L313 488L315 495L314 497L310 494L303 494z"
			aria-describedby="leaflet-tooltip-2443"
		></path>
		<path
			class="leaflet-interactive"
			stroke="gray"
			stroke-opacity="1"
			stroke-width="1"
			stroke-linecap="round"
			stroke-linejoin="round"
			fill="none"
			d="M601 277L601 282L599 282L595 288L593 288L590 291L585 290L579 299L575 298L572 300L572 314L570 324L567 330L564 332L559 343L561 350L556 351L551 358L546 352L545 338L536 329L534 329L531 335L523 323L524 320L534 310L540 300L547 295L549 283L553 277L553 272L551 269L543 265L542 257L539 251L537 248L534 248L531 245L528 239L530 236L537 235L545 231L551 225L550 212L558 213L559 211L564 211L564 209L572 202L574 197L582 197L586 195L589 193L589 189L591 188L594 190L598 182L606 182L612 185L615 189L624 191L626 187L625 182L631 170L631 163L639 166L644 162L650 162L650 165L641 181L643 186L641 189L639 202L634 208L630 208L626 212L628 216L625 220L626 223L629 225L627 228L626 236L624 239L615 241L611 243L609 246L605 247L605 249L607 250L607 262L606 267L601 273L602 275z"
			aria-describedby="leaflet-tooltip-2444"
		></path>
		<path
			class="leaflet-interactive"
			stroke="gray"
			stroke-opacity="1"
			stroke-width="1"
			stroke-linecap="round"
			stroke-linejoin="round"
			fill="none"
			d="M317 510L317 502L314 497L315 495L313 488L317 482L317 471L319 469L323 469L323 463L326 463L326 459L328 459L332 464L335 464L336 470L338 471L339 474L342 476L344 474L348 486L354 495L357 496L360 506L356 512L339 512L320 516L316 511z"
			aria-describedby="leaflet-tooltip-2445"
		></path>
		<path
			class="leaflet-interactive"
			stroke="gray"
			stroke-opacity="1"
			stroke-width="1"
			stroke-linecap="round"
			stroke-linejoin="round"
			fill="none"
			d="M270 449L268 448L269 440L272 435L272 428L275 426L270 405L277 401L277 394L282 390L284 391L284 395L287 394L295 398L290 404L291 407L289 409L293 409L297 416L296 420L300 422L300 426L302 427L302 429L306 430L302 436L297 438L291 436L284 440L282 447L278 445z"
			aria-describedby="leaflet-tooltip-2446"
		></path>
		<path
			class="leaflet-interactive"
			stroke="gray"
			stroke-opacity="1"
			stroke-width="1"
			stroke-linecap="round"
			stroke-linejoin="round"
			fill="none"
			d="M488 187L493 189L495 192L495 198L497 201L493 208L488 208L487 210L500 219L503 236L492 236L487 239L482 238L478 241L477 239L464 231L458 231L457 229L448 226L448 235L440 236L436 240L423 240L422 243L411 234L412 231L409 231L404 228L410 225L412 219L409 212L405 211L395 213L395 204L392 202L394 197L393 195L381 189L384 188L384 183L388 175L383 166L386 154L389 154L398 145L408 139L413 139L419 142L423 140L427 141L428 145L441 143L444 150L442 157L443 159L448 161L461 161L458 158L461 153L464 154L470 149L470 147L467 148L452 144L450 145L444 139L444 134L439 133L438 130L440 128L441 123L440 119L431 119L430 117L433 111L435 112L441 110L444 106L459 101L459 90L466 79L473 78L475 80L482 75L491 78L492 91L494 95L493 106L495 112L500 117L501 133L500 137L497 138L497 140L505 143L497 154L495 155L491 152L483 161L485 165L484 167L481 165L479 172L476 176L480 179L480 183L484 186z"
			aria-describedby="leaflet-tooltip-2447"
		></path>
		<path
			class="leaflet-interactive"
			stroke="gray"
			stroke-opacity="1"
			stroke-width="1"
			stroke-linecap="round"
			stroke-linejoin="round"
			fill="none"
			d="M362 336L364 331L362 328L363 319L369 315L374 315L376 317L391 321L400 321L403 327L406 329L403 335L427 329L445 343L446 350L441 364L440 372L438 375L436 375L431 384L431 392L428 407L425 409L421 408L422 404L412 393L404 395L400 398L394 394L396 390L383 384L375 386L377 388L376 390L367 392L366 391L363 392L362 395L358 396L355 390L350 392L349 394L343 393L340 403L338 404L335 402L332 398L336 386L333 384L325 386L319 382L317 376L319 375L322 369L330 367L332 363L330 362L333 353L332 351L330 352L328 349L329 338L324 330L324 323L338 325L347 329L347 331L352 332z"
			aria-describedby="leaflet-tooltip-2448"
		></path>
		<path
			class="leaflet-interactive"
			stroke="gray"
			stroke-opacity="1"
			stroke-width="1"
			stroke-linecap="round"
			stroke-linejoin="round"
			fill="none"
			d="M660 151L655 159L650 162L644 162L639 166L631 163L631 170L625 182L626 187L624 191L615 189L612 185L606 182L598 182L594 190L591 188L589 189L589 193L586 195L582 197L574 197L572 202L564 209L564 211L559 211L558 213L550 212L544 205L537 203L534 196L539 192L539 180L543 179L546 176L543 173L544 170L541 165L555 161L560 156L566 156L567 154L564 145L569 142L572 136L576 134L579 129L573 121L571 124L568 123L572 113L572 102L575 92L573 80L580 75L585 67L583 60L579 54L580 44L585 44L585 41L589 40L588 36L590 33L595 33L607 21L616 18L623 19L631 9L647 9L671 44L677 76L676 80L679 84L692 84L695 86L697 91L700 94L702 93L703 95L700 103L702 109L700 111L700 116L697 119L701 123L701 129L699 131L691 133L690 136L676 146L666 142L662 150z"
			aria-describedby="leaflet-tooltip-2449"
		></path>
		<path
			class="leaflet-interactive"
			stroke="gray"
			stroke-opacity="1"
			stroke-width="1"
			stroke-linecap="round"
			stroke-linejoin="round"
			fill="none"
			d="M224 518L213 508L205 493L201 480L203 479L209 484L218 486L219 484L222 484L222 482L227 483L231 478L234 481L237 481L237 479L241 480L245 477L245 474L248 475L250 474L249 472L252 470L261 469L260 466L264 466L264 470L262 472L264 474L263 477L260 477L260 480L256 487L258 490L255 496L258 502L260 503L264 500L266 503L264 504L264 508L266 511L263 518L266 523L238 526L225 520z"
			aria-describedby="leaflet-tooltip-2450"
		></path>
		<path
			class="leaflet-interactive"
			stroke="gray"
			stroke-opacity="1"
			stroke-width="1"
			stroke-linecap="round"
			stroke-linejoin="round"
			fill="none"
			d="M387 466L385 480L381 483L375 494L376 496L371 498L371 503L368 504L368 501L364 502L359 496L354 495L348 486L344 474L342 476L339 474L335 467L341 468L337 459L336 450L340 445L338 442L342 437L341 435L344 433L346 436L348 436L354 432L357 432L360 422L362 422L365 419L363 416L364 412L366 412L367 409L365 405L360 401L358 396L362 395L363 392L376 390L377 388L375 386L380 384L387 385L396 390L394 394L400 398L404 395L412 393L422 404L420 414L415 414L412 423L403 428L388 442L388 447L386 449L390 453L389 460z"
			aria-describedby="leaflet-tooltip-2451"
		></path>
		<path
			class="leaflet-interactive"
			stroke="gray"
			stroke-opacity="1"
			stroke-width="1"
			stroke-linecap="round"
			stroke-linejoin="round"
			fill="none"
			d="M249 472L250 474L245 474L245 477L241 480L237 479L237 481L234 481L231 478L227 483L222 482L222 484L219 484L218 486L209 484L203 479L201 480L197 470L197 465L188 458L190 456L179 438L187 423L187 425L191 424L192 429L194 430L194 438L199 434L197 432L207 431L211 433L212 431L216 430L229 439L229 445L233 446L239 443L248 432L240 424L238 415L241 413L245 417L249 413L256 411L262 406L270 405L275 426L272 428L272 435L269 440L269 445L265 457L262 458L263 461L260 464L261 469L252 470z"
			aria-describedby="leaflet-tooltip-2452"
		></path>
		<path
			class="leaflet-interactive"
			stroke="gray"
			stroke-opacity="1"
			stroke-width="1"
			stroke-linecap="round"
			stroke-linejoin="round"
			fill="none"
			d="M338 442L340 445L336 450L331 447L330 443L317 441L316 439L318 434L317 433L325 437L326 434L324 432L324 429L326 428L328 423L326 418L329 412L326 399L328 398L331 401L332 398L338 404L340 403L343 393L349 394L350 392L355 390L360 401L365 405L367 409L366 412L364 412L363 416L365 419L362 422L360 422L357 432L354 432L348 436L346 436L345 433L341 435L342 437z"
			aria-describedby="leaflet-tooltip-2453"
		></path>
		<path
			class="leaflet-interactive"
			stroke="gray"
			stroke-opacity="1"
			stroke-width="1"
			stroke-linecap="round"
			stroke-linejoin="round"
			fill="none"
			d="M245 417L241 413L238 415L240 424L248 432L239 443L233 446L229 445L229 439L216 430L212 431L211 433L207 431L197 432L199 434L194 438L194 430L192 429L191 424L187 425L187 423L184 422L183 419L180 417L182 412L185 411L187 407L188 402L186 395L194 384L209 384L211 394L213 392L218 393L222 388L222 380L224 374L226 373L228 364L233 359L233 354L231 350L239 346L242 350L240 351L240 354L244 354L250 351L251 354L254 356L257 355L257 359L259 358L262 364L268 362L271 366L272 371L270 376L270 382L267 388L267 394L270 404L262 406L256 411L249 413z"
			aria-describedby="leaflet-tooltip-2454"
		></path>
		<path
			class="leaflet-interactive"
			stroke="gray"
			stroke-opacity="1"
			stroke-width="1"
			stroke-linecap="round"
			stroke-linejoin="round"
			fill="none"
			d="M197 354L193 355L182 353L180 356L177 354L175 347L172 344L175 332L183 321L184 322L186 320L190 323L198 323L199 319L207 318L207 322L211 320L216 323L215 326L212 326L213 332L219 333L221 337L217 343L213 344L213 352L208 360L201 363L199 362L198 357z"
			aria-describedby="leaflet-tooltip-2455"
		></path>
		<path
			class="leaflet-interactive"
			stroke="gray"
			stroke-opacity="1"
			stroke-width="1"
			stroke-linecap="round"
			stroke-linejoin="round"
			fill="none"
			d="M324 432L326 434L325 437L315 431L310 432L302 429L302 427L300 426L300 422L296 420L297 416L295 412L293 409L289 409L291 407L290 404L295 398L287 394L284 395L285 388L287 387L287 390L292 389L294 386L301 383L301 380L308 376L309 372L313 372L317 376L319 382L324 386L333 384L336 386L331 401L328 398L326 399L329 412L326 418L328 423L326 428L324 429z"
			aria-describedby="leaflet-tooltip-2456"
		></path>
		<path
			class="leaflet-interactive"
			stroke="gray"
			stroke-opacity="1"
			stroke-width="1"
			stroke-linecap="round"
			stroke-linejoin="round"
			fill="none"
			d="M327 251L324 252L320 262L320 277L315 288L307 296L276 299L277 257L290 256L299 263L310 249L315 249L320 245L324 246z"
			aria-describedby="leaflet-tooltip-2457"
		></path>
		<path
			class="leaflet-interactive"
			stroke="gray"
			stroke-opacity="1"
			stroke-width="1"
			stroke-linecap="round"
			stroke-linejoin="round"
			fill="none"
			d="M501 221L487 210L488 208L493 208L497 201L495 198L495 192L493 189L484 186L480 183L480 179L476 176L479 172L481 165L484 167L485 165L483 161L485 158L491 152L495 155L497 154L505 143L508 142L517 146L521 145L524 152L533 163L534 167L532 182L533 183L539 180L540 185L539 192L534 196L537 203L544 205L550 212L551 225L545 231L543 231L540 234L531 236L528 239L505 239L503 236L502 225z"
			aria-describedby="leaflet-tooltip-2458"
		></path>
		<path
			class="leaflet-interactive"
			stroke="gray"
			stroke-opacity="1"
			stroke-width="1"
			stroke-linecap="round"
			stroke-linejoin="round"
			fill="none"
			d="M302 474L301 476L297 476L290 473L284 475L278 473L275 469L276 464L273 460L268 460L270 449L278 445L282 447L282 442L291 436L297 438L300 436L309 438L311 454L310 458L305 465z"
			aria-describedby="leaflet-tooltip-2459"
		></path>
		<path
			class="leaflet-interactive"
			stroke="gray"
			stroke-opacity="1"
			stroke-width="1"
			stroke-linecap="round"
			stroke-linejoin="round"
			fill="none"
			d="M435 112L433 111L430 117L431 119L440 119L441 123L440 128L438 130L439 133L444 134L444 139L450 145L452 144L467 148L470 147L468 152L464 154L461 153L458 158L461 161L460 162L457 162L456 160L448 161L443 159L442 157L444 150L441 143L428 145L427 141L423 140L421 142L413 139L407 140L408 133L414 131L416 128L410 125L411 123L409 122L409 118L405 118L404 114L408 111L408 106L410 104L408 102L408 97L405 98L404 102L401 102L400 99L395 99L393 97L394 93L390 89L391 87L387 86L381 92L382 87L386 81L380 79L379 76L381 72L367 71L365 75L361 77L359 75L357 68L350 67L351 58L368 57L374 59L375 63L379 65L388 66L394 62L395 58L437 59L443 57L447 52L461 47L464 48L465 50L465 57L470 56L481 59L483 72L482 75L475 80L473 78L466 79L459 90L459 100L455 103L444 106L441 110L437 111z"
			aria-describedby="leaflet-tooltip-2460"
		></path>
		<path
			class="leaflet-interactive"
			stroke="gray"
			stroke-opacity="1"
			stroke-width="1"
			stroke-linecap="round"
			stroke-linejoin="round"
			fill="none"
			d="M375 216L376 227L372 232L372 238L373 242L377 247L380 248L380 251L376 255L378 256L376 258L375 263L369 269L368 265L363 259L357 258L349 266L347 264L348 257L342 252L342 249L339 247L336 248L333 252L328 250L327 251L324 246L320 245L315 249L302 250L304 246L301 245L299 242L304 236L306 236L306 234L303 231L303 229L300 228L299 226L304 224L303 213L294 213L282 210L281 208L284 203L291 197L289 195L284 194L285 187L283 184L279 183L279 180L273 178L272 182L269 181L263 184L262 181L260 180L243 193L242 189L239 188L241 177L239 175L240 168L242 166L245 166L246 162L250 158L265 158L271 155L275 144L282 138L288 139L289 140L287 144L296 151L301 149L299 145L302 143L307 144L309 138L311 137L314 137L315 139L322 143L328 141L329 138L335 138L339 134L351 131L349 138L356 142L356 144L360 147L364 146L374 156L374 175L370 175L370 178L375 178L379 183L384 183L384 188L381 189L387 193L384 198L377 202L376 207L378 215L376 215z"
			aria-describedby="leaflet-tooltip-2461"
		></path>
		<path
			class="leaflet-interactive"
			stroke="gray"
			stroke-opacity="1"
			stroke-width="1"
			stroke-linecap="round"
			stroke-linejoin="round"
			fill="none"
			d="M155 115L149 120L147 118L144 119L153 127L157 122L163 123L169 119L174 120L178 118L187 119L191 116L195 116L198 120L204 120L205 122L216 123L221 121L225 124L224 131L234 132L237 136L241 138L242 142L241 145L237 146L234 151L232 151L229 155L221 157L220 159L214 161L204 161L203 157L200 156L202 151L199 146L198 140L195 140L193 142L193 145L188 148L191 144L190 140L185 140L184 145L180 145L178 139L174 138L166 143L166 145L163 148L166 151L169 153L182 156L184 164L181 165L182 169L185 170L185 172L176 176L170 175L169 179L170 186L172 189L172 198L163 198L163 208L154 206L156 199L152 197L151 191L153 185L163 179L164 169L166 166L160 162L157 164L144 164L137 157L125 158L114 153L107 153L103 147L98 143L100 135L99 122L105 119L107 116L105 112L105 108L108 104L105 98L107 90L106 75L122 61L131 47L133 40L132 34L137 33L144 36L145 39L154 40L160 43L162 39L164 40L160 49L169 60L169 62L166 65L169 71L171 72L166 83L159 80L158 85L155 87L154 94L157 101L156 109L154 111z"
			aria-describedby="leaflet-tooltip-2462"
		></path>
		<path
			class="leaflet-interactive"
			stroke="gray"
			stroke-opacity="1"
			stroke-width="1"
			stroke-linecap="round"
			stroke-linejoin="round"
			fill="none"
			d="M400 99L401 102L404 102L405 98L408 97L408 102L410 104L408 106L408 111L404 114L405 118L409 118L409 122L411 123L410 125L416 128L414 131L408 133L407 140L398 145L389 154L386 154L383 166L388 175L386 181L383 184L379 183L375 178L370 178L370 175L374 175L374 156L364 146L360 147L356 144L356 142L349 138L351 131L339 134L335 138L329 138L326 135L325 130L330 125L337 123L334 113L335 112L333 109L336 86L338 84L349 81L355 71L358 70L359 75L361 77L363 77L367 71L381 72L379 76L380 79L386 81L381 91L387 86L391 87L390 89L394 93L393 97L395 99L398 99z"
			aria-describedby="leaflet-tooltip-2463"
		></path>
		<path
			class="leaflet-interactive"
			stroke="gray"
			stroke-opacity="1"
			stroke-width="1"
			stroke-linecap="round"
			stroke-linejoin="round"
			fill="none"
			d="M268 362L262 364L261 360L259 358L257 359L257 355L254 356L251 354L250 351L244 354L240 354L240 351L242 350L240 346L234 349L234 347L230 343L229 337L224 338L221 337L219 333L213 332L212 326L215 326L216 323L211 320L207 322L207 318L209 315L208 312L205 313L202 311L202 308L199 309L197 305L207 294L214 298L238 302L240 300L240 293L243 287L245 284L248 283L255 289L258 299L272 313L279 302L279 299L287 298L284 307L288 314L286 322L287 324L285 328L286 330L288 328L309 321L324 323L324 330L329 338L328 349L330 352L332 351L333 353L331 356L330 362L332 363L330 367L322 369L319 375L317 376L313 372L309 372L308 376L301 380L301 383L297 384L290 390L287 390L287 387L285 388L284 391L282 390L277 394L277 401L270 404L267 389L272 372L271 366z"
			aria-describedby="leaflet-tooltip-2464"
		></path>
		<path
			class="leaflet-interactive"
			stroke="gray"
			stroke-opacity="1"
			stroke-width="1"
			stroke-linecap="round"
			stroke-linejoin="round"
			fill="none"
			d="M334 94L335 97L333 109L335 112L334 113L337 123L330 125L325 130L328 141L322 143L315 139L314 137L311 137L309 138L307 144L302 143L299 145L301 149L296 151L287 144L289 140L283 138L283 128L280 126L282 115L291 115L294 113L296 109L299 109L301 107L293 100L296 94L291 75L289 58L291 50L290 48L293 48L301 41L305 43L311 43L332 30L350 33L365 45L370 44L377 52L394 58L399 57L395 58L394 62L388 66L379 65L375 63L374 59L372 58L352 57L350 67L357 68L358 70L355 71L349 81L338 84L335 90z"
			aria-describedby="leaflet-tooltip-2465"
		></path>
		<path
			class="leaflet-interactive"
			stroke="gray"
			stroke-opacity="1"
			stroke-width="1"
			stroke-linecap="round"
			stroke-linejoin="round"
			fill="none"
			d="M151 312L146 308L135 282L139 274L143 272L143 269L137 271L126 267L121 259L116 259L113 261L112 266L107 270L84 281L80 279L77 283L72 285L67 290L61 290L58 293L57 281L60 271L59 265L71 265L76 263L80 253L78 244L82 241L86 233L89 233L89 225L97 221L100 222L104 217L104 210L107 208L108 204L110 206L110 209L113 211L118 211L123 214L122 218L126 219L127 222L134 222L144 237L160 252L166 255L166 259L168 261L170 262L179 258L188 263L191 267L209 273L214 278L219 279L223 283L241 282L242 284L245 284L240 293L240 300L238 302L214 298L208 294L204 297L197 305L199 309L202 308L202 311L205 313L208 312L209 315L207 318L199 319L198 323L190 323L187 320L184 322L182 320L178 323L178 321L175 319L170 321L161 321L159 319L156 321L152 317z"
			aria-describedby="leaflet-tooltip-2466"
		></path>
		<path
			class="leaflet-interactive"
			stroke="gray"
			stroke-opacity="1"
			stroke-width="1"
			stroke-linecap="round"
			stroke-linejoin="round"
			fill="none"
			d="M63 411L55 412L55 408L62 409L67 405L82 404L84 397L87 395L90 396L91 398L96 398L96 395L130 396L130 398L128 399L129 402L131 403L134 400L137 401L137 404L134 405L134 407L144 409L144 412L136 412L123 409L82 411zM93 407L102 407L103 404L106 403L103 402L102 404L100 404L94 402L93 404z"
			aria-describedby="leaflet-tooltip-2467"
		></path>
		<path
			class="leaflet-interactive"
			stroke="gray"
			stroke-opacity="1"
			stroke-width="1"
			stroke-linecap="round"
			stroke-linejoin="round"
			fill="none"
			d="M338 325L309 321L288 328L286 330L285 328L287 324L286 322L288 314L284 307L287 298L307 296L315 288L320 278L320 262L324 252L328 250L333 252L336 248L339 247L342 249L342 252L348 257L347 264L349 266L357 258L363 259L368 265L369 269L373 266L378 256L378 258L383 260L385 267L398 267L400 272L397 276L393 278L393 280L390 283L397 296L402 298L402 300L406 298L417 297L430 302L429 308L417 305L414 311L418 314L417 318L419 320L406 329L403 327L400 321L391 321L376 317L374 315L369 315L363 319L362 328L364 331L362 336L347 331L347 329L345 328z"
			aria-describedby="leaflet-tooltip-2468"
		></path>
		<path
			class="leaflet-interactive"
			stroke="gray"
			stroke-opacity="1"
			stroke-width="1"
			stroke-linecap="round"
			stroke-linejoin="round"
			fill="none"
			d="M276 283L276 299L279 299L279 302L272 313L258 299L255 289L250 284L242 284L241 282L223 283L219 279L214 278L209 273L191 267L182 259L179 258L170 262L168 261L166 259L166 255L160 252L144 237L134 222L127 222L126 219L122 218L123 214L118 211L113 211L110 209L110 206L104 201L103 199L106 190L109 189L114 192L117 181L117 176L112 168L113 164L112 159L110 157L110 152L125 158L137 157L144 164L149 165L155 163L157 164L160 162L166 166L164 169L163 179L153 185L151 191L152 197L156 199L154 206L163 208L163 198L172 198L172 189L170 186L169 179L170 175L176 176L185 172L185 170L182 169L181 165L184 164L182 156L169 153L163 148L166 145L166 143L174 138L178 139L180 145L184 145L185 140L190 140L191 144L188 147L193 145L193 142L195 140L198 140L199 146L202 150L200 156L203 157L204 161L214 161L220 159L221 157L229 155L232 151L234 151L235 155L240 159L242 163L239 172L239 175L241 177L239 188L242 189L243 193L260 180L262 181L263 184L269 181L272 182L273 178L279 180L279 183L283 184L285 187L284 193L291 197L286 201L281 208L282 210L285 211L303 213L304 224L299 226L300 228L303 229L306 236L304 236L299 242L301 245L304 246L302 250L309 250L299 263L290 256L277 257L277 263z"
			aria-describedby="leaflet-tooltip-2469"
		></path>
		<path
			class="leaflet-interactive"
			stroke="gray"
			stroke-opacity="1"
			stroke-width="1"
			stroke-linecap="round"
			stroke-linejoin="round"
			fill="none"
			d="M111 374L122 374L124 372L135 369L136 376L140 373L145 375L146 378L152 379L153 377L158 376L156 378L155 387L148 391L146 398L150 400L152 405L156 398L158 406L156 405L156 409L154 410L158 413L157 416L155 416L152 413L150 414L144 412L144 409L134 407L134 405L137 404L137 401L134 400L131 403L129 402L128 399L130 398L130 396L96 395L96 398L91 398L90 396L87 395L84 397L82 404L67 405L62 409L55 408L60 392L57 391L56 381L56 378L59 376L57 371L59 369L57 355L60 355L60 351L57 347L57 336L55 331L61 326L65 328L65 334L68 336L70 331L73 335L70 345L80 358L85 358L88 361L95 351L98 357L101 354L110 354L110 362L113 362L114 371z"
			aria-describedby="leaflet-tooltip-2470"
		></path>
		<path
			class="leaflet-interactive"
			stroke="gray"
			stroke-opacity="1"
			stroke-width="1"
			stroke-linecap="round"
			stroke-linejoin="round"
			fill="none"
			d="M187 407L185 411L182 412L180 417L183 419L184 422L187 423L179 438L161 421L150 414L152 413L155 416L157 416L158 413L154 410L156 409L156 405L158 406L156 398L152 405L150 400L146 398L148 391L155 387L156 378L166 366L166 361L169 358L179 358L182 353L193 355L197 354L199 362L204 362L208 360L212 354L212 348L214 346L213 344L217 343L221 337L229 337L230 343L234 347L234 349L231 350L233 354L233 359L228 364L226 373L224 374L222 380L222 388L218 393L213 392L211 394L209 384L194 384L186 395L188 402z"
			aria-describedby="leaflet-tooltip-2471"
		></path>
		<path
			class="leaflet-interactive"
			stroke="gray"
			stroke-opacity="1"
			stroke-width="1"
			stroke-linecap="round"
			stroke-linejoin="round"
			fill="none"
			d="M172 344L175 347L177 354L180 356L179 358L169 358L166 361L166 366L158 376L153 377L152 379L146 378L145 375L142 373L140 373L137 376L135 369L130 371L129 370L132 364L134 351L128 343L130 339L130 332L137 331L136 328L140 325L145 330L148 330L149 327L156 325L156 321L159 319L161 321L170 321L175 319L178 321L178 323L182 320L183 321L181 325L175 332L174 338z"
			aria-describedby="leaflet-tooltip-2472"
		></path>
		<path
			class="leaflet-interactive"
			stroke="gray"
			stroke-opacity="1"
			stroke-width="1"
			stroke-linecap="round"
			stroke-linejoin="round"
			fill="none"
			d="M110 362L110 354L101 354L98 357L95 351L88 361L85 358L80 358L70 345L73 337L70 331L68 336L65 334L65 329L61 326L55 331L53 330L55 328L58 312L55 306L55 301L58 297L58 293L61 290L67 290L72 285L77 283L80 279L84 281L92 278L110 268L112 266L112 262L116 259L121 259L126 267L137 271L143 269L143 272L139 274L135 282L146 308L151 312L153 319L156 321L156 325L149 327L148 330L145 330L140 325L136 328L137 331L130 332L130 339L128 343L134 351L132 364L129 370L130 371L124 372L122 374L111 374L114 371L113 362z"
			aria-describedby="leaflet-tooltip-2473"
		></path>
		<path
			class="leaflet-interactive"
			stroke="gray"
			stroke-opacity="1"
			stroke-width="1"
			stroke-linecap="round"
			stroke-linejoin="round"
			fill="none"
			d="M398 267L385 267L383 260L378 258L378 256L376 255L379 253L380 248L377 247L373 242L372 238L372 232L376 227L375 216L378 215L376 207L377 202L384 198L387 193L393 195L394 197L392 202L395 204L394 213L405 211L409 212L412 219L410 225L404 228L409 231L412 231L411 234L418 241L422 243L423 240L436 240L440 236L447 235L448 226L453 227L458 231L464 231L481 243L482 255L485 262L483 270L473 272L437 304L417 297L406 298L403 300L402 298L397 296L390 283L393 280L393 278L397 276L400 272L399 268z"
			aria-describedby="leaflet-tooltip-2474"
		></path>
		<path
			class="leaflet-interactive"
			stroke="gray"
			stroke-opacity="1"
			stroke-width="1"
			stroke-linecap="round"
			stroke-linejoin="round"
			fill="none"
			d="M290 473L297 476L302 475L303 481L301 488L298 488L296 492L301 495L310 494L314 497L317 502L316 511L320 516L311 518L305 517L306 519L299 521L295 521L297 517L294 516L290 518L288 521L280 520L281 522L274 522L268 524L264 521L263 518L266 511L264 508L264 504L266 503L264 500L260 503L258 502L255 496L258 490L256 487L260 480L260 477L263 477L264 474L262 472L264 470L264 466L260 466L260 464L262 463L262 458L265 457L268 448L270 449L268 460L273 460L276 464L275 469L277 472L284 475L288 474z"
			aria-describedby="leaflet-tooltip-2475"
		></path>
		<path
			class="leaflet-interactive"
			stroke="gray"
			stroke-opacity="1"
			stroke-width="1"
			stroke-linecap="round"
			stroke-linejoin="round"
			fill="none"
			d="M217 64L221 80L221 85L219 89L216 88L203 90L192 87L179 87L177 90L175 115L177 119L169 119L163 123L157 122L153 127L144 119L147 118L149 120L155 115L154 111L156 109L157 101L154 94L155 87L158 85L159 80L166 83L167 79L170 76L171 72L166 66L169 60L160 49L164 40L162 39L160 43L154 40L145 39L144 36L137 33L132 34L132 22L137 22L151 9L169 5L179 7L193 7L199 1L209 -1L233 9L236 9L242 13L250 11L258 15L271 29L277 39L271 44L267 45L251 39L248 40L247 47L242 44L235 47L235 63L225 57L218 59L217 63z"
			aria-describedby="leaflet-tooltip-2476"
		></path>
		<path
			class="leaflet-interactive"
			stroke="gray"
			stroke-opacity="1"
			stroke-width="1"
			stroke-linecap="round"
			stroke-linejoin="round"
			fill="none"
			d="M449 385L444 391L439 389L434 405L429 404L431 384L436 375L438 375L440 372L441 364L446 350L445 343L427 329L403 335L406 329L419 320L417 318L418 314L414 311L416 305L429 308L430 302L437 304L473 272L483 270L485 262L481 251L481 243L478 241L482 238L487 239L492 236L498 235L503 236L505 239L528 239L531 245L534 248L537 248L539 251L542 257L543 265L551 269L553 272L553 277L549 283L547 294L544 298L540 300L534 310L524 320L523 323L531 335L534 329L536 329L545 338L546 352L551 358L549 360L548 365L550 374L543 375L538 380L538 383L536 383L535 386L536 387L534 397L532 399L529 399L527 401L527 404L522 405L520 403L510 403L510 396L508 394L500 394L500 391L494 386L496 382L486 375L484 375L483 370L481 370L480 381L477 384L462 384L459 376L456 379z"
			aria-describedby="leaflet-tooltip-2477"
		></path>
		<path
			class="leaflet-interactive"
			stroke="gray"
			stroke-opacity="1"
			stroke-width="1"
			stroke-linecap="round"
			stroke-linejoin="round"
			fill="none"
			d="M571 117L568 123L571 124L573 121L579 129L576 134L572 136L569 142L564 145L567 154L566 156L560 156L555 161L541 165L544 170L543 173L546 176L543 179L533 183L533 163L524 152L521 145L517 146L508 142L503 143L497 140L497 138L500 137L501 133L500 117L495 112L493 106L494 95L492 91L491 78L482 75L483 72L481 59L470 56L465 57L465 50L464 48L461 47L447 52L443 57L432 59L450 39L461 33L475 33L489 28L530 28L537 31L552 34L561 42L567 43L569 41L580 44L579 54L583 60L585 67L580 75L573 80L575 92L572 102L572 113z"
			aria-describedby="leaflet-tooltip-2478"
		></path>
		<path
			class="leaflet-interactive"
			stroke="gray"
			stroke-opacity="1"
			stroke-width="1"
			stroke-linecap="round"
			stroke-linejoin="round"
			fill="none"
			d="M225 124L221 121L216 123L205 122L204 120L198 120L196 116L191 116L187 119L177 119L175 115L177 90L179 87L192 87L203 90L216 88L219 89L221 85L221 80L217 64L218 59L224 57L235 63L235 47L242 44L247 47L248 41L251 39L267 45L271 44L277 39L284 49L290 48L291 50L289 58L291 75L296 94L293 100L301 107L299 109L296 109L294 113L291 115L282 115L280 124L280 126L283 128L282 138L275 144L271 155L265 158L250 158L246 162L246 165L242 166L240 159L235 155L234 151L237 146L241 145L241 138L237 136L234 132L224 132L225 125z"
			aria-describedby="leaflet-tooltip-2479"
		></path>
	</g>
</svg>
