<svg pointer-events="none" class="leaflet-zoom-animated" width="907" height="630" viewBox="-76 -52 907 630" style="transform: translate3d(-76px, -52px, 0px);">
	<g>
		<path
			class="leaflet-interactive"
			stroke="gray"
			stroke-opacity="1"
			stroke-width="1"
			stroke-linecap="round"
			stroke-linejoin="round"
			fill="#E5E7EB"
			fill-opacity="1"
			fill-rule="evenodd"
			d="M341 296L337 294L331 280L334 263L342 254L345 248L344 245L339 249L335 245L330 244L327 247L323 246L315 248L312 245L308 247L306 253L299 256L298 259L295 259L293 263L290 256L286 253L279 258L279 261L271 262L269 270L270 276L268 276L275 282L276 289L273 303L274 308L270 315L271 318L277 315L280 324L287 321L293 324L294 330L311 326L312 320L322 311L322 300L340 299z"
			aria-describedby="leaflet-tooltip-15288"
		></path>
		<path
			class="leaflet-interactive"
			stroke="gray"
			stroke-opacity="1"
			stroke-width="1"
			stroke-linecap="round"
			stroke-linejoin="round"
			fill="#E5E7EB"
			fill-opacity="1"
			fill-rule="evenodd"
			d="M493 217L504 218L504 216L522 213L532 200L539 186L539 164L545 150L549 148L544 142L523 147L511 165L495 153L478 153L478 216L481 216z"
			aria-describedby="leaflet-tooltip-15289"
		></path>
		<path
			class="leaflet-interactive"
			stroke="gray"
			stroke-opacity="1"
			stroke-width="1"
			stroke-linecap="round"
			stroke-linejoin="round"
			fill="#E5E7EB"
			fill-opacity="1"
			fill-rule="evenodd"
			d="M166 262L173 255L183 257L179 259L179 269L182 270L182 273L185 271L187 262L189 264L190 270L186 281L193 288L194 294L200 299L207 300L212 304L217 297L218 293L222 290L224 298L229 294L242 294L243 305L246 305L249 317L244 322L260 322L264 318L271 318L270 315L274 308L273 303L276 289L275 282L268 276L270 276L269 270L271 262L279 261L279 258L286 253L290 256L293 263L295 259L298 259L299 256L306 253L308 247L303 244L301 235L294 227L279 193L281 184L290 175L289 174L281 176L265 171L258 160L251 159L247 162L245 170L241 174L233 174L234 177L206 190L200 188L189 196L182 204L173 204L169 206L169 213L166 225L169 235L164 258z"
			aria-describedby="leaflet-tooltip-15290"
		></path>
		<path
			class="leaflet-interactive"
			stroke="gray"
			stroke-opacity="1"
			stroke-width="1"
			stroke-linecap="round"
			stroke-linejoin="round"
			fill="#E5E7EB"
			fill-opacity="1"
			fill-rule="evenodd"
			d="M308 -53L306 -44L298 -37L295 -41L293 -40L297 -34L296 -30L302 -25L301 -23L304 -23L308 -27L306 -31L315 -34L315 -36L320 -36L327 -42L329 -39L332 -40L333 -37L336 -39L335 -44L339 -50L334 -53z"
			aria-describedby="leaflet-tooltip-15291"
		></path>
		<path
			class="leaflet-interactive"
			stroke="gray"
			stroke-opacity="1"
			stroke-width="1"
			stroke-linecap="round"
			stroke-linejoin="round"
			fill="#E5E7EB"
			fill-opacity="1"
			fill-rule="evenodd"
			d="M165 370L165 376L254 372L292 377L291 370L284 371L277 368L277 366L282 363L281 359L278 359L273 362L270 361L269 358L272 355L271 353L263 352L222 352L222 356L218 356L208 351L203 361L203 364L200 366L179 366L177 371z"
			aria-describedby="leaflet-tooltip-15292"
		></path>
		<path
			class="leaflet-interactive"
			stroke="gray"
			stroke-opacity="1"
			stroke-width="1"
			stroke-linecap="round"
			stroke-linejoin="round"
			fill="#E5E7EB"
			fill-opacity="1"
			fill-rule="evenodd"
			d="M694 222L705 223L714 218L755 179L769 175L772 169L772 164L767 146L768 140L761 131L744 120L735 121L729 117L722 118L723 124L721 126L711 127L706 132L700 133L691 131L691 137L680 137L678 132L674 132L670 129L672 127L669 126L669 119L664 120L659 116L664 114L668 108L665 107L664 95L667 94L657 91L652 95L647 93L647 97L645 97L642 94L645 83L642 79L644 72L642 69L633 66L632 72L627 75L623 80L623 96L619 106L620 113L616 117L613 129L618 140L624 144L621 157L629 161L629 165L632 168L632 171L652 172L653 178L649 184L644 185L639 194L646 205L646 210L651 211L655 214L655 217L657 218L660 215L674 214z"
			aria-describedby="leaflet-tooltip-15293"
		></path>
		<path
			class="leaflet-interactive"
			stroke="gray"
			stroke-opacity="1"
			stroke-width="1"
			stroke-linecap="round"
			stroke-linejoin="round"
			fill="#E5E7EB"
			fill-opacity="1"
			fill-rule="evenodd"
			d="M0 0"
			aria-describedby="leaflet-tooltip-15294"
		></path>
		<path
			class="leaflet-interactive"
			stroke="gray"
			stroke-opacity="1"
			stroke-width="1"
			stroke-linecap="round"
			stroke-linejoin="round"
			fill="#E5E7EB"
			fill-opacity="1"
			fill-rule="evenodd"
			d="M460 534L467 535L472 533L470 527L470 519L473 512L471 521L472 532L484 531L483 528L496 530L492 520L493 511L496 525L506 523L508 514L506 510L500 506L501 503L502 507L509 512L511 517L504 527L505 530L518 527L520 525L538 524L539 521L534 517L536 514L534 510L535 500L532 495L526 492L519 491L511 493L505 490L506 487L512 483L516 469L514 465L510 467L497 463L487 465L479 461L475 457L474 444L466 444L469 429L464 429L465 434L462 439L458 441L458 447L454 450L455 453L461 453L458 460L461 464L460 467L455 470L449 482L451 486L448 494L453 504L459 501L464 502L457 509L461 516L457 526L457 531z"
			aria-describedby="leaflet-tooltip-15295"
		></path>
		<path
			class="leaflet-interactive"
			stroke="gray"
			stroke-opacity="1"
			stroke-width="1"
			stroke-linecap="round"
			stroke-linejoin="round"
			fill="#E5E7EB"
			fill-opacity="1"
			fill-rule="evenodd"
			d="M633 66L642 69L644 72L642 79L645 83L642 94L645 97L647 97L647 93L652 95L657 91L667 94L664 95L665 107L668 108L664 114L659 116L664 120L669 119L669 126L672 127L670 129L674 132L678 132L680 137L691 137L691 131L700 133L706 132L711 127L721 126L723 124L722 118L729 117L735 121L744 120L761 131L765 136L783 139L798 126L799 124L797 122L797 118L799 113L796 105L778 90L780 87L785 85L790 75L786 72L788 65L786 61L784 62L780 58L774 58L766 49L767 46L761 42L767 33L774 27L775 23L773 20L778 11L780 10L783 13L795 11L801 6L795 -2L796 -3L794 -3L795 -6L793 -8L796 -25L795 -43L793 -47L786 -51L786 -53L713 -53L711 -51L701 -48L699 -50L698 -43L695 -41L701 -38L707 -39L708 -36L710 -36L709 -31L711 -29L711 -24L707 -21L707 -18L714 -17L715 -10L717 -9L717 -7L725 -2L730 -3L737 1L752 2L749 9L748 8L744 11L740 11L737 14L736 18L741 22L734 22L732 19L724 22L714 18L712 13L715 11L715 3L710 -4L699 1L693 -1L694 -7L686 -6L685 -4L674 -9L660 -6L657 -8L641 4L639 9L631 12L631 23L629 23L628 29L636 41L631 49L630 59L628 62z"
			aria-describedby="leaflet-tooltip-15296"
		></path>
		<path
			class="leaflet-interactive"
			stroke="gray"
			stroke-opacity="1"
			stroke-width="1"
			stroke-linecap="round"
			stroke-linejoin="round"
			fill="#E5E7EB"
			fill-opacity="1"
			fill-rule="evenodd"
			d="M662 -7L674 -9L685 -4L686 -6L694 -7L693 -1L699 1L710 -4L715 3L715 11L712 13L714 18L724 22L732 19L734 22L741 22L736 18L737 14L740 11L744 11L748 8L749 9L752 2L737 1L730 -3L725 -2L717 -7L717 -9L715 -10L714 -17L707 -18L707 -21L711 -24L711 -29L709 -31L710 -36L708 -36L707 -39L701 -38L695 -41L698 -43L699 -50L701 -48L711 -51L713 -53L663 -53L665 -52L661 -47L658 -46L658 -41L660 -37L664 -39L666 -32L668 -32L675 -26L665 -17z"
			aria-describedby="leaflet-tooltip-15297"
		></path>
		<path
			class="leaflet-interactive"
			stroke="gray"
			stroke-opacity="1"
			stroke-width="1"
			stroke-linecap="round"
			stroke-linejoin="round"
			fill="#E5E7EB"
			fill-opacity="1"
			fill-rule="evenodd"
			d="M693 367L697 348L697 336L704 322L711 313L710 308L715 296L715 289L693 264L677 263L657 267L656 266L661 258L651 245L640 247L611 239L600 245L598 254L601 259L603 268L601 269L576 260L561 252L546 250L545 258L552 271L552 278L549 280L553 295L555 297L553 305L555 306L555 310L543 316L540 321L541 327L535 326L538 333L546 339L557 336L562 339L563 345L557 356L561 362L566 364L570 358L569 350L580 350L588 344L593 353L598 352L603 347L618 345L620 342L617 339L624 336L630 337L645 344L647 347L645 352L650 355L670 350L683 365L683 374z"
			aria-describedby="leaflet-tooltip-15298"
		></path>
		<path
			class="leaflet-interactive"
			stroke="gray"
			stroke-opacity="1"
			stroke-width="1"
			stroke-linecap="round"
			stroke-linejoin="round"
			fill="#E5E7EB"
			fill-opacity="1"
			fill-rule="evenodd"
			d="M532 495L535 500L534 510L536 514L534 517L540 521L540 523L573 517L593 518L597 512L594 497L588 487L580 483L574 464L572 463L569 466L564 459L559 456L563 456L560 450L555 448L552 443L547 442L548 449L544 448L542 452L545 456L535 459L536 475L534 478L535 479L529 484L532 485z"
			aria-describedby="leaflet-tooltip-15299"
		></path>
		<path
			class="leaflet-interactive"
			stroke="gray"
			stroke-opacity="1"
			stroke-width="1"
			stroke-linecap="round"
			stroke-linejoin="round"
			fill="#E5E7EB"
			fill-opacity="1"
			fill-rule="evenodd"
			d="M351 392L352 394L358 394L359 400L362 401L360 406L362 412L368 408L366 406L367 404L374 405L375 402L379 402L383 406L392 401L403 406L411 415L410 423L416 425L425 421L433 413L437 404L435 403L436 401L432 401L428 395L426 387L423 384L426 378L434 384L439 378L449 375L458 368L469 367L464 342L469 333L469 325L472 319L471 311L466 305L457 308L456 302L451 300L450 296L447 297L440 290L431 295L426 294L426 290L430 286L428 286L427 282L421 284L414 290L416 293L416 301L411 302L409 314L402 326L400 344L395 348L389 348L385 351L383 343L385 340L384 337L362 337L352 349L349 357L353 362L353 367L349 371L349 374L343 377L342 382z"
			aria-describedby="leaflet-tooltip-15300"
		></path>
		<path
			class="leaflet-interactive"
			stroke="gray"
			stroke-opacity="1"
			stroke-width="1"
			stroke-linecap="round"
			stroke-linejoin="round"
			fill="#E5E7EB"
			fill-opacity="1"
			fill-rule="evenodd"
			d="M468 362L479 360L479 352L487 343L490 344L492 340L493 345L500 344L506 337L510 336L512 330L523 324L524 321L530 321L535 326L541 327L540 321L543 316L555 310L555 306L553 305L555 297L553 295L549 280L552 278L552 271L545 258L546 250L533 247L517 249L491 260L494 238L489 227L493 217L481 216L482 221L475 227L476 230L473 230L470 237L464 227L452 216L445 198L441 195L433 194L427 208L426 218L423 220L401 218L390 215L381 209L379 210L366 225L368 230L373 229L373 233L377 235L382 235L382 240L379 242L380 250L385 245L391 245L390 247L392 251L390 254L387 254L388 261L390 264L397 264L402 268L400 270L403 272L412 271L413 278L418 287L421 284L427 282L428 286L430 286L426 290L426 294L431 295L440 290L447 297L450 296L451 300L456 302L457 308L466 305L471 311L472 319L469 325L469 333L464 342z"
			aria-describedby="leaflet-tooltip-15301"
		></path>
		<path
			class="leaflet-interactive"
			stroke="gray"
			stroke-opacity="1"
			stroke-width="1"
			stroke-linecap="round"
			stroke-linejoin="round"
			fill="#E5E7EB"
			fill-opacity="1"
			fill-rule="evenodd"
			d="M486 -12L495 -10L495 -5L492 -1L499 2L506 8L511 3L509 -2L516 -4L521 -3L524 -11L534 -10L541 -3L548 -6L549 -11L551 -11L547 -15L546 -20L549 -26L548 -28L563 -33L560 -41L559 -53L505 -53L505 -48L499 -44L495 -46L486 -44L483 -30L487 -25z"
			aria-describedby="leaflet-tooltip-15302"
		></path>
		<path
			class="leaflet-interactive"
			stroke="gray"
			stroke-opacity="1"
			stroke-width="1"
			stroke-linecap="round"
			stroke-linejoin="round"
			fill="#E5E7EB"
			fill-opacity="1"
			fill-rule="evenodd"
			d="M375 472L377 475L391 481L401 478L402 475L407 477L412 469L418 474L422 475L424 470L427 472L432 470L434 464L440 464L439 461L443 458L449 459L455 457L454 450L458 447L458 441L462 439L465 434L464 429L473 402L471 399L475 396L476 392L469 367L458 368L449 375L439 378L434 384L426 378L423 384L426 387L428 395L432 401L436 401L435 403L437 404L433 413L425 421L416 425L410 423L411 415L403 406L392 401L383 406L379 402L375 402L374 405L367 404L366 406L368 408L362 412L360 406L362 401L359 400L358 394L352 394L351 392L339 414L354 436L360 434L370 436L372 433L375 432L380 436L373 433L371 437L357 436L353 441L359 448L368 452L377 451L381 443L387 442L381 444L381 451L377 453L365 454L368 469z"
			aria-describedby="leaflet-tooltip-15303"
		></path>
		<path
			class="leaflet-interactive"
			stroke="gray"
			stroke-opacity="1"
			stroke-width="1"
			stroke-linecap="round"
			stroke-linejoin="round"
			fill="#E5E7EB"
			fill-opacity="1"
			fill-rule="evenodd"
			d="M621 157L624 144L618 140L613 129L616 117L620 113L619 106L623 96L623 80L627 75L632 72L633 66L628 62L630 59L631 49L625 54L620 47L609 45L607 40L614 38L614 25L618 17L617 13L610 9L610 5L606 5L604 0L593 0L590 -4L591 -6L586 -7L580 -12L582 -22L568 -19L562 -15L561 -12L549 -11L548 -6L541 -3L534 -10L524 -11L521 -3L516 -4L509 -2L511 3L506 8L499 2L492 -1L495 -5L495 -10L486 -12L481 -9L481 -6L477 -7L476 -3L471 -1L470 6L472 10L469 14L451 17L443 16L434 25L430 26L430 29L427 30L428 32L425 36L425 42L428 44L426 49L427 53L425 55L430 57L430 68L436 66L437 63L440 63L443 57L455 48L460 54L467 50L473 50L473 46L480 46L482 55L484 53L487 54L490 58L488 67L496 68L498 71L495 77L493 77L491 81L488 81L485 84L486 90L502 94L512 93L515 95L516 111L511 112L510 115L517 125L512 130L513 133L509 138L512 149L544 142L549 148L555 152L564 149L575 153L577 156L575 169L578 170L585 169L590 159L597 158L605 165L609 173L615 171L614 169L618 165z"
			aria-describedby="leaflet-tooltip-15304"
		></path>
		<path
			class="leaflet-interactive"
			stroke="gray"
			stroke-opacity="1"
			stroke-width="1"
			stroke-linecap="round"
			stroke-linejoin="round"
			fill="#E5E7EB"
			fill-opacity="1"
			fill-rule="evenodd"
			d="M832 -53L786 -53L786 -51L793 -47L795 -43L796 -25L793 -8L795 -6L794 -3L796 -3L795 -2L799 4L806 -4L807 0L817 5L825 4L832 12z"
			aria-describedby="leaflet-tooltip-15305"
		></path>
		<path
			class="leaflet-interactive"
			stroke="gray"
			stroke-opacity="1"
			stroke-width="1"
			stroke-linecap="round"
			stroke-linejoin="round"
			fill="#E5E7EB"
			fill-opacity="1"
			fill-rule="evenodd"
			d="M592 493L598 499L601 499L601 502L604 503L606 501L607 503L605 505L607 506L611 504L612 497L619 496L617 491L620 489L626 476L633 470L636 444L641 436L636 427L637 417L664 394L675 380L680 380L683 374L683 365L670 350L650 355L645 352L647 347L645 344L630 337L624 336L617 339L620 342L618 345L603 347L598 352L593 353L595 360L601 363L604 372L606 372L605 375L601 378L601 382L603 385L594 397L592 405L587 404L579 410L578 408L574 409L574 405L570 407L571 413L565 418L568 423L565 424L562 429L564 432L564 441L570 454L561 454L563 456L559 456L564 459L569 466L572 463L574 464L580 483L588 487z"
			aria-describedby="leaflet-tooltip-15306"
		></path>
		<path
			class="leaflet-interactive"
			stroke="gray"
			stroke-opacity="1"
			stroke-width="1"
			stroke-linecap="round"
			stroke-linejoin="round"
			fill="#E5E7EB"
			fill-opacity="1"
			fill-rule="evenodd"
			d="M493 217L489 227L494 238L491 260L517 249L533 247L561 252L576 260L601 269L603 268L601 259L597 254L600 245L611 239L640 247L651 245L661 258L673 252L679 246L677 239L679 237L672 231L675 225L694 228L694 222L674 214L660 215L657 218L655 217L655 214L651 211L646 210L646 205L639 194L644 185L649 184L653 178L652 172L632 171L632 168L629 165L629 161L621 157L618 165L614 169L615 171L611 173L609 173L605 165L597 158L590 159L585 169L578 170L575 169L577 156L575 153L564 149L555 152L549 148L545 150L539 164L539 186L532 200L522 213L504 216L504 218z"
			aria-describedby="leaflet-tooltip-15307"
		></path>
		<path
			class="leaflet-interactive"
			stroke="gray"
			stroke-opacity="1"
			stroke-width="1"
			stroke-linecap="round"
			stroke-linejoin="round"
			fill="#E5E7EB"
			fill-opacity="1"
			fill-rule="evenodd"
			d="M341 296L346 293L365 294L368 305L378 305L387 293L390 281L393 280L394 275L402 268L397 264L390 264L388 261L387 254L390 254L392 251L390 247L391 245L385 245L380 250L379 242L369 243L366 250L356 250L352 246L347 249L345 248L342 254L334 263L331 280L337 294z"
			aria-describedby="leaflet-tooltip-15308"
		></path>
		<path
			class="leaflet-interactive"
			stroke="gray"
			stroke-opacity="1"
			stroke-width="1"
			stroke-linecap="round"
			stroke-linejoin="round"
			fill="#E5E7EB"
			fill-opacity="1"
			fill-rule="evenodd"
			d="M551 -11L561 -12L562 -15L568 -19L582 -22L580 -12L586 -7L591 -6L590 -4L593 0L604 0L606 5L610 5L610 9L617 13L618 17L614 25L614 38L607 40L609 45L620 47L625 54L631 49L636 41L628 29L629 23L631 23L631 12L639 9L641 4L653 -6L657 -8L660 -6L662 -7L665 -17L675 -26L668 -32L666 -32L664 -39L660 -37L658 -41L658 -46L661 -47L665 -52L663 -53L559 -53L560 -41L563 -33L548 -28L549 -26L546 -20L547 -15z"
			aria-describedby="leaflet-tooltip-15309"
		></path>
		<path
			class="leaflet-interactive"
			stroke="gray"
			stroke-opacity="1"
			stroke-width="1"
			stroke-linecap="round"
			stroke-linejoin="round"
			fill="#E5E7EB"
			fill-opacity="1"
			fill-rule="evenodd"
			d="M339 414L351 392L342 382L343 377L349 374L349 371L353 367L353 362L349 357L352 349L362 337L384 337L385 340L383 343L385 351L389 348L395 348L400 344L402 326L409 314L411 302L416 301L416 293L414 290L418 287L413 278L412 271L403 272L400 270L394 275L393 280L390 281L387 293L378 305L368 305L365 294L346 293L341 296L340 299L322 300L322 311L312 320L311 326L307 329L306 340L297 346L293 354L294 357L299 359L302 366L308 356L310 358L311 367L308 367L305 374L301 375L309 376L310 380L308 382L301 380L322 396z"
			aria-describedby="leaflet-tooltip-15310"
		></path>
		<path
			class="leaflet-interactive"
			stroke="gray"
			stroke-opacity="1"
			stroke-width="1"
			stroke-linecap="round"
			stroke-linejoin="round"
			fill="#E5E7EB"
			fill-opacity="1"
			fill-rule="evenodd"
			d="M438 21L443 16L451 17L469 14L472 10L470 6L471 -1L476 -3L477 -7L481 -6L481 -9L486 -12L487 -25L483 -30L486 -44L495 -46L499 -44L505 -48L505 -53L510 -53L334 -53L339 -50L335 -44L336 -39L341 -40L346 -37L347 -39L355 -40L355 -44L359 -41L365 -44L364 -41L366 -42L368 -37L375 -37L379 -33L384 -35L401 -35L404 -31L405 -16L418 -18L424 -12L433 -12L431 -10L432 -8L428 -5L426 4L421 5L422 0L419 7L421 14L430 15z"
			aria-describedby="leaflet-tooltip-15311"
		></path>
		<path
			class="leaflet-interactive"
			stroke="gray"
			stroke-opacity="1"
			stroke-width="1"
			stroke-linecap="round"
			stroke-linejoin="round"
			fill="#E5E7EB"
			fill-opacity="1"
			fill-rule="evenodd"
			d="M345 248L347 249L352 246L356 250L366 250L369 243L379 242L382 240L382 235L377 235L373 233L373 229L368 230L366 225L381 209L390 215L401 218L423 220L426 218L427 208L433 194L429 195L428 193L424 192L402 194L397 187L390 186L381 178L357 171L353 165L342 158L325 163L321 153L313 150L311 145L291 128L276 107L274 107L273 105L271 107L266 107L265 103L260 102L262 100L259 99L261 97L256 97L257 94L250 91L248 91L247 93L240 84L235 100L228 108L216 109L214 111L215 119L199 139L201 150L195 167L187 169L185 167L172 169L168 191L169 206L173 204L182 204L189 196L200 188L206 190L234 177L233 174L241 174L245 170L247 162L251 159L258 160L265 171L281 176L289 174L290 175L281 184L279 193L294 227L301 235L303 244L308 247L312 245L315 248L335 245L339 249L344 245z"
			aria-describedby="leaflet-tooltip-15312"
		></path>
		<path
			class="leaflet-interactive"
			stroke="gray"
			stroke-opacity="1"
			stroke-width="1"
			stroke-linecap="round"
			stroke-linejoin="round"
			fill="#E5E7EB"
			fill-opacity="1"
			fill-rule="evenodd"
			d="M532 495L532 485L529 484L535 479L534 478L536 475L535 459L545 456L542 452L544 448L548 449L547 442L552 443L555 448L560 450L561 454L570 454L564 441L564 432L556 425L553 419L535 418L533 413L535 405L526 405L520 402L518 405L514 406L514 410L524 412L525 427L523 428L527 435L514 465L516 469L512 483L506 487L505 490L511 493L519 491L526 492z"
			aria-describedby="leaflet-tooltip-15313"
		></path>
		<path
			class="leaflet-interactive"
			stroke="gray"
			stroke-opacity="1"
			stroke-width="1"
			stroke-linecap="round"
			stroke-linejoin="round"
			fill="#E5E7EB"
			fill-opacity="1"
			fill-rule="evenodd"
			d="M514 465L527 435L523 428L525 427L524 412L514 410L508 413L498 411L486 420L485 425L479 422L472 424L469 429L466 444L474 444L475 457L479 461L487 465L497 463L510 467z"
			aria-describedby="leaflet-tooltip-15314"
		></path>
		<path
			class="leaflet-interactive"
			stroke="gray"
			stroke-opacity="1"
			stroke-width="1"
			stroke-linecap="round"
			stroke-linejoin="round"
			fill="#E5E7EB"
			fill-opacity="1"
			fill-rule="evenodd"
			d="M247 24L249 22L259 23L264 17L272 16L285 16L286 22L290 22L290 26L294 27L306 24L311 27L318 24L320 28L317 44L310 52L303 54L301 63L301 70L308 77L305 88L312 88L316 78L325 76L331 79L337 74L336 62L330 60L327 56L327 50L325 47L326 42L337 42L343 38L349 37L349 34L343 29L343 27L347 24L344 14L322 7L318 0L321 -2L318 -3L319 -5L332 -10L333 -12L338 -10L342 -2L345 -3L345 2L346 0L359 1L360 -6L366 -10L373 9L371 9L371 15L375 19L381 19L384 22L397 18L402 12L410 9L411 7L416 5L419 7L422 0L421 5L426 4L428 -5L432 -8L431 -10L433 -12L424 -12L418 -18L405 -16L404 -31L401 -35L395 -36L392 -34L384 -35L379 -33L375 -37L368 -37L366 -42L364 -41L365 -44L359 -41L355 -44L355 -40L347 -39L346 -37L341 -40L333 -37L332 -40L329 -39L327 -42L320 -36L315 -36L315 -34L306 -31L308 -27L304 -23L301 -23L302 -25L296 -30L297 -34L293 -40L295 -41L298 -37L306 -44L308 -53L235 -53L239 -41L235 -37L227 -34L227 -23L224 -17L225 -6L239 7L243 8L243 17z"
			aria-describedby="leaflet-tooltip-15315"
		></path>
		<path
			class="leaflet-interactive"
			stroke="gray"
			stroke-opacity="1"
			stroke-width="1"
			stroke-linecap="round"
			stroke-linejoin="round"
			fill="#E5E7EB"
			fill-opacity="1"
			fill-rule="evenodd"
			d="M433 194L441 195L445 198L452 216L464 227L470 237L473 230L476 230L475 227L482 221L481 216L478 216L478 153L495 153L511 165L523 147L512 149L509 138L513 133L512 130L517 125L510 115L511 112L516 111L515 95L512 93L502 94L486 90L485 84L488 81L491 81L498 71L496 68L488 67L490 58L487 54L484 53L482 55L480 46L473 46L473 50L467 50L460 54L455 48L443 57L440 63L437 63L436 66L430 68L430 57L425 55L427 53L426 49L428 44L425 42L425 36L428 32L427 30L430 29L430 26L434 25L438 21L430 15L421 14L419 7L416 5L402 12L397 18L384 22L381 19L375 19L371 15L371 9L373 9L366 -10L360 -6L359 1L346 0L345 2L345 -3L342 -2L338 -10L333 -12L332 -10L319 -5L318 -3L321 -2L318 0L322 7L344 14L347 24L343 27L343 29L349 34L349 37L343 38L337 42L326 42L325 47L327 50L327 56L330 60L336 62L337 74L331 79L325 76L316 78L312 88L305 88L308 77L301 70L301 63L303 54L310 52L317 44L320 28L318 24L311 27L306 24L294 27L290 26L290 22L286 22L285 16L264 17L259 23L249 22L247 24L245 33L253 43L253 50L249 64L240 61L237 64L232 75L247 93L248 91L250 91L257 94L256 97L261 97L259 99L262 100L260 102L265 103L266 107L271 107L273 105L274 107L276 107L291 128L311 145L313 150L321 153L325 163L342 158L353 165L357 171L381 178L390 186L397 187L402 194L424 192L428 193L429 195z"
			aria-describedby="leaflet-tooltip-15316"
		></path>
		<path
			class="leaflet-interactive"
			stroke="gray"
			stroke-opacity="1"
			stroke-width="1"
			stroke-linecap="round"
			stroke-linejoin="round"
			fill="#E5E7EB"
			fill-opacity="1"
			fill-rule="evenodd"
			d="M693 367L701 365L708 343L714 345L736 326L742 338L763 338L767 326L771 323L782 332L788 331L793 343L804 347L806 351L805 359L810 371L829 370L832 368L832 258L826 249L832 243L832 131L817 129L809 133L800 130L798 126L783 139L765 136L768 140L767 146L772 164L772 169L769 175L755 179L714 218L705 223L694 222L694 228L675 225L672 231L679 237L677 239L679 246L673 252L661 258L656 266L657 267L677 263L693 264L715 289L715 296L710 308L711 313L704 322L697 336L697 348z"
			aria-describedby="leaflet-tooltip-15317"
		></path>
		<path
			class="leaflet-interactive"
			stroke="gray"
			stroke-opacity="1"
			stroke-width="1"
			stroke-linecap="round"
			stroke-linejoin="round"
			fill="#E5E7EB"
			fill-opacity="1"
			fill-rule="evenodd"
			d="M520 402L526 405L535 405L545 411L549 409L545 402L550 396L550 388L548 382L551 372L547 357L557 356L563 345L562 339L557 336L546 339L538 333L535 326L530 321L524 321L523 324L512 330L510 336L506 337L500 344L493 345L492 340L490 344L487 343L483 347L487 352L493 350L504 354L502 359L498 363L496 371L505 375L505 387L509 387L514 399L518 399L517 401z"
			aria-describedby="leaflet-tooltip-15318"
		></path>
		<path
			class="leaflet-interactive"
			stroke="gray"
			stroke-opacity="1"
			stroke-width="1"
			stroke-linecap="round"
			stroke-linejoin="round"
			fill="#E5E7EB"
			fill-opacity="1"
			fill-rule="evenodd"
			d="M832 243L826 249L832 258z"
			aria-describedby="leaflet-tooltip-15319"
		></path>
		<path
			class="leaflet-interactive"
			stroke="gray"
			stroke-opacity="1"
			stroke-width="1"
			stroke-linecap="round"
			stroke-linejoin="round"
			fill="#E5E7EB"
			fill-opacity="1"
			fill-rule="evenodd"
			d="M301 380L308 382L310 380L309 376L301 375L305 374L308 367L311 367L310 358L308 356L302 366L299 359L294 357L293 354L297 346L306 340L307 329L311 326L294 330L293 324L287 321L280 324L277 315L271 318L264 318L260 322L244 322L249 317L246 305L243 305L242 294L229 294L224 298L222 290L218 293L217 297L212 304L207 300L200 299L194 294L193 288L186 281L190 270L189 264L187 262L185 271L182 273L182 270L179 269L179 259L183 257L173 255L166 262L168 267L166 282L169 321L165 331L169 338L167 345L172 347L171 352L167 357L168 362L165 366L165 370L177 371L179 366L200 366L203 364L203 361L208 351L218 356L222 356L222 352L263 352L271 353L272 355L269 358L270 361L273 362L278 359L281 359L282 363L277 366L277 368L284 371L291 370L292 377z"
			aria-describedby="leaflet-tooltip-15320"
		></path>
		<path
			class="leaflet-interactive"
			stroke="gray"
			stroke-opacity="1"
			stroke-width="1"
			stroke-linecap="round"
			stroke-linejoin="round"
			fill="#E5E7EB"
			fill-opacity="1"
			fill-rule="evenodd"
			d="M798 126L800 130L809 133L817 129L832 131L832 12L825 4L817 5L807 0L806 -4L799 4L801 6L795 11L783 13L780 10L778 11L773 20L775 23L774 27L767 33L761 42L767 46L766 49L774 58L780 58L784 62L786 61L788 65L786 72L790 75L789 78L785 85L780 87L778 90L796 105L799 113L797 118L797 122L799 124z"
			aria-describedby="leaflet-tooltip-15321"
		></path>
		<path
			class="leaflet-interactive"
			stroke="gray"
			stroke-opacity="1"
			stroke-width="1"
			stroke-linecap="round"
			stroke-linejoin="round"
			fill="#E5E7EB"
			fill-opacity="1"
			fill-rule="evenodd"
			d="M557 356L547 357L551 372L548 382L550 388L550 396L545 402L549 409L545 411L535 405L533 413L535 418L553 419L556 425L562 429L565 424L568 423L565 418L571 413L570 407L574 405L574 409L578 408L579 410L587 404L592 405L594 397L603 385L601 382L601 378L605 375L606 372L604 372L601 363L595 360L588 344L580 350L569 350L570 358L566 364L561 362z"
			aria-describedby="leaflet-tooltip-15322"
		></path>
		<path
			class="leaflet-interactive"
			stroke="gray"
			stroke-opacity="1"
			stroke-width="1"
			stroke-linecap="round"
			stroke-linejoin="round"
			fill="#E5E7EB"
			fill-opacity="1"
			fill-rule="evenodd"
			d="M469 429L472 424L479 422L485 425L486 420L498 411L508 413L514 410L514 406L518 405L520 402L517 401L518 399L514 399L509 387L505 387L505 375L496 371L498 363L502 359L504 354L493 350L487 352L483 347L479 352L479 360L468 362L476 392L475 396L471 399L473 402L472 407L464 429z"
			aria-describedby="leaflet-tooltip-15323"
		></path>
		<path
			class="leaflet-interactive"
			stroke="gray"
			stroke-opacity="1"
			stroke-width="1"
			stroke-linecap="round"
			stroke-linejoin="round"
			fill="#E5E7EB"
			fill-opacity="1"
			fill-rule="evenodd"
			d="M375 472L370 472L382 503L395 519L405 528L424 538L434 537L436 528L436 531L438 529L439 530L436 536L460 534L457 531L457 526L461 516L457 509L464 502L459 501L453 504L448 494L451 486L449 482L455 470L460 467L461 464L458 460L461 453L455 453L455 457L449 459L443 458L439 461L440 464L434 464L432 470L427 472L424 470L422 475L418 474L412 469L407 477L402 475L401 478L391 481L377 475z"
			aria-describedby="leaflet-tooltip-15324"
		></path>
	</g>
</svg>
